<svg xmlns:xlink="http://www.w3.org/1999/xlink" width="180" height="28" viewBox="0 0 180 28" fill="none" xmlns="http://www.w3.org/2000/svg"><path d="M2.28 16.688C1.74 16.688 1.248 16.592 0.816 16.436V12.356H2.94C4.548 12.356 4.872 13.436 4.872 14.312C4.872 15.392 4.404 16.688 2.28 16.688ZM2.244 17.444C4.752 17.444 5.76 15.956 5.76 14.312C5.76 12.92 5.028 11.6 2.832 11.6H0V20H0.816V17.24C1.224 17.372 1.716 17.444 2.244 17.444Z" fill="#2D34CE"></path><path d="M9.25294 20.12C10.9929 20.12 11.7729 18.656 11.7729 17C11.7729 15.344 11.0049 13.88 9.25294 13.88C7.52494 13.88 6.73294 15.344 6.73294 17C6.73294 18.656 7.52494 20.12 9.25294 20.12ZM9.25294 19.376C7.96894 19.376 7.57294 18.2 7.57294 17C7.57294 15.8 7.96894 14.624 9.25294 14.624C10.5129 14.624 10.9329 15.8 10.9329 17C10.9329 18.2 10.5129 19.376 9.25294 19.376Z" fill="#2D34CE"></path><path d="M18.9157 20.144L20.6197 14H19.7317L18.5917 18.668L17.2237 14.312C17.1517 14.084 17.0557 14 16.7797 14H16.2397L14.7397 18.668L13.6837 14.372C13.6237 14.132 13.4797 14 13.2637 14H12.6997L14.2837 19.712C14.3677 20.024 14.5117 20.132 14.7877 20.132H15.0157L16.6717 14.9L18.1717 19.724C18.2677 20.024 18.4117 20.144 18.6757 20.144H18.9157Z" fill="#2D34CE"></path><path d="M24.0654 14.624C25.1934 14.624 25.5774 15.524 25.5774 16.448V16.508H22.4094C22.5174 15.5 22.9614 14.624 24.0654 14.624ZM26.2614 19.7L25.9974 19.04C25.5534 19.268 25.0374 19.376 24.3414 19.376C22.9494 19.376 22.4454 18.32 22.3854 17.204H26.4174V16.748C26.4174 15.164 25.8054 13.88 24.0654 13.88C22.3374 13.88 21.5454 15.344 21.5454 17C21.5454 18.656 22.3854 20.12 24.3294 20.12C25.1214 20.12 25.6494 20 26.2614 19.7Z" fill="#2D34CE"></path><path d="M28.8018 20V16.532C28.8018 15.248 29.5338 14.78 30.2178 14.78C30.4698 14.78 30.6618 14.828 30.8418 14.924L31.0098 13.988C30.8058 13.916 30.6018 13.88 30.3498 13.88C29.7498 13.88 29.0658 14.252 28.7778 14.996L28.6458 14.228C28.6098 14.06 28.5258 14 28.3578 14H27.9618V20H28.8018Z" fill="#2D34CE"></path><path d="M34.1318 14.624C35.2598 14.624 35.6438 15.524 35.6438 16.448V16.508H32.4758C32.5838 15.5 33.0278 14.624 34.1318 14.624ZM36.3278 19.7L36.0638 19.04C35.6198 19.268 35.1038 19.376 34.4078 19.376C33.0158 19.376 32.5118 18.32 32.4518 17.204H36.4838V16.748C36.4838 15.164 35.8718 13.88 34.1318 13.88C32.4038 13.88 31.6118 15.344 31.6118 17C31.6118 18.656 32.4518 20.12 34.3958 20.12C35.1878 20.12 35.7158 20 36.3278 19.7Z" fill="#2D34CE"></path><path d="M40.3082 19.376C39.0842 19.376 38.6042 18.152 38.6042 17.072C38.6042 15.788 39.1922 14.624 40.4642 14.624C41.1242 14.624 41.6642 14.972 41.9042 15.26V17.696C41.9042 18.932 41.0282 19.376 40.3082 19.376ZM41.9402 19.28L42.0242 20H42.7442V11H41.9282V14.48C41.5562 14.084 40.9082 13.88 40.3442 13.88C38.7842 13.88 37.7642 15.272 37.7642 17.072C37.7642 18.764 38.6522 20.12 40.2242 20.12C40.9442 20.12 41.6042 19.772 41.9402 19.28Z" fill="#2D34CE"></path><path d="M49.8773 20.12C51.8573 20.12 52.7933 18.668 52.7933 16.772C52.7933 15.2 52.0493 13.88 50.3933 13.88C49.6853 13.88 48.9413 14.252 48.6293 14.936V11H47.8133V19.592C48.2693 19.868 48.9173 20.12 49.8773 20.12ZM49.9973 19.376C49.3853 19.376 48.9413 19.268 48.6533 19.1V16.868C48.6533 15.212 49.5053 14.624 50.3213 14.624C51.6053 14.624 51.9533 15.752 51.9533 16.772C51.9533 18.056 51.4373 19.376 49.9973 19.376Z" fill="#2D34CE"></path><path d="M56.5233 23.048C58.2633 23.048 58.8633 22.088 58.8633 20.696V14H58.0233V17.732C58.0233 18.944 57.2433 19.376 56.5713 19.376C55.7793 19.376 55.1793 18.944 55.1793 17.732V14H54.3393V17.864C54.3393 19.28 55.0953 20.12 56.4633 20.12C57.0153 20.12 57.6993 19.856 58.0593 19.304V20.588C58.0593 21.536 57.7353 22.292 56.5233 22.292C55.8033 22.292 55.3593 22.076 54.9273 21.836L54.6753 22.532C55.2033 22.868 55.8993 23.048 56.5233 23.048Z" fill="#2D34CE"></path><g opacity="0.45" fill="none"><path d="M68 25.3034H79.2956C85.7304 25.3034 90.9477 20.0876 90.9477 13.6521C90.9477 7.21656 85.7312 2 79.2956 2H68V25.3034Z" fill="#550FED"></path></g><path d="M68.0544 2.00075C68.0363 2.00075 68.0181 2.00075 68 2.00075V25.3034C68.0181 25.3034 68.0363 25.3034 68.0544 25.3034C74.4899 25.3034 79.7065 20.0869 79.7065 13.6521C79.7065 7.21731 74.4899 2 68.0544 2" fill="#550FED"></path><path d="M108.208 7.63379H106.285C106.236 7.63379 106.196 7.67382 106.196 7.72291V11.25C105.603 10.4985 104.576 10.0551 103.401 10.0551C100.517 10.0551 98.5796 12.5384 98.5796 14.8586C98.5796 17.1787 100.349 19.662 103.309 19.662C104.458 19.662 105.543 19.2021 106.196 18.4491V19.332C106.196 19.3818 106.236 19.4218 106.285 19.4218H108.208C108.257 19.4218 108.297 19.3818 108.297 19.332V7.72291C108.297 7.67382 108.257 7.63379 108.208 7.63379ZM103.549 17.6719C102.029 17.6719 100.792 16.4099 100.792 14.8593C100.792 13.3088 102.029 12.0468 103.549 12.0468C105.07 12.0468 106.27 13.3345 106.27 14.8593C106.27 16.3842 105.023 17.6719 103.549 17.6719Z" fill="#550FED"></path><path d="M114.87 10.0557C111.606 10.0557 109.845 12.5306 109.845 14.8591C109.845 17.1876 111.606 19.6625 114.871 19.6625C116.477 19.6436 117.979 18.8574 119.1 17.4474C119.116 17.427 119.122 17.4005 119.117 17.3741C119.112 17.3484 119.096 17.3258 119.073 17.3129L117.446 16.4074C117.407 16.3855 117.358 16.396 117.331 16.4323C116.668 17.3159 115.798 17.7827 114.814 17.7827C113.468 17.7827 112.33 16.8379 112.178 15.6144H119.51C119.56 15.6144 119.6 15.5743 119.6 15.5245V15.1733C119.6 11.6432 116.834 10.0557 114.87 10.0557M114.611 11.9355C115.798 11.9355 116.733 12.647 117.132 13.8448H112.194C112.516 12.6636 113.433 11.9355 114.611 11.9355" fill="#550FED"></path><path d="M126.051 14.0872L124.109 13.7171C123.365 13.5872 123.018 13.3154 123.018 12.863C123.018 12.1885 123.82 11.8252 124.574 11.8252C125.329 11.8252 126.15 12.1545 126.919 12.8025C126.937 12.8184 126.961 12.8252 126.986 12.8237C127.01 12.8214 127.032 12.8093 127.047 12.7904L128.137 11.4408C128.153 11.4219 128.16 11.397 128.156 11.3721C128.152 11.3472 128.14 11.3252 128.119 11.3109C126.9 10.4431 125.79 10.0557 124.518 10.0557C122.153 10.0557 120.916 11.57 120.916 13.0661C120.916 14.5623 121.838 15.27 124.206 15.7057L125.297 15.9089C126.02 16.0418 126.388 16.3605 126.388 16.856C126.388 17.2804 125.788 17.8945 124.703 17.8945C123.772 17.8945 122.67 17.3779 121.959 16.6105C121.943 16.5924 121.919 16.5818 121.895 16.5818C121.869 16.5818 121.847 16.5909 121.83 16.6083L120.518 17.939C120.5 17.9572 120.49 17.9813 120.492 18.0063C120.493 18.0312 120.504 18.0546 120.524 18.0704C121.786 19.1422 123.123 19.6633 124.612 19.6633C125.857 19.6633 126.887 19.3038 127.588 18.6233C128.162 18.0667 128.492 17.3152 128.492 16.5599C128.492 15.2012 127.693 14.3923 126.053 14.0872" fill="#550FED"></path><path d="M134.89 10.0557C133.726 10.0557 132.709 10.4869 132.004 11.2754V10.3857C132.004 10.3359 131.963 10.2958 131.914 10.2958H129.991C129.941 10.2958 129.901 10.3359 129.901 10.3857V22.42C129.901 22.4698 129.941 22.5098 129.991 22.5098H131.914C131.963 22.5098 132.004 22.4698 132.004 22.42V18.4685C132.596 19.22 133.623 19.6633 134.798 19.6633C137.682 19.6633 139.62 17.1792 139.62 14.8599C139.62 12.5405 137.851 10.0564 134.891 10.0564M134.651 12.0473C136.171 12.0473 137.408 13.3086 137.408 14.8599C137.408 16.4112 136.171 17.6724 134.651 17.6724C133.13 17.6724 131.93 16.3847 131.93 14.8599C131.93 13.335 133.176 12.0473 134.651 12.0473Z" fill="#550FED"></path><path d="M145.722 10.0557C142.458 10.0557 140.697 12.5306 140.697 14.8591C140.697 17.1876 142.459 19.6625 145.724 19.6625C147.33 19.6436 148.832 18.8574 149.952 17.4474C149.969 17.427 149.975 17.4005 149.97 17.3741C149.964 17.3484 149.948 17.3258 149.925 17.3129L148.298 16.4074C148.259 16.3855 148.21 16.396 148.183 16.4323C147.52 17.3159 146.649 17.7827 145.666 17.7827C144.32 17.7827 143.182 16.8379 143.029 15.6144H150.362C150.411 15.6144 150.451 15.5743 150.451 15.5245V15.1733C150.451 11.6432 147.686 10.0557 145.722 10.0557M145.463 11.9355C146.65 11.9355 147.585 12.647 147.984 13.8448H143.045C143.368 12.6636 144.285 11.9355 145.463 11.9355" fill="#550FED"></path><path d="M160.954 10.2958H159.143C159.093 10.2958 159.053 10.3359 159.053 10.3857V11.2301C158.398 10.4612 157.455 10.0557 156.314 10.0557C154.001 10.0557 151.659 11.6734 151.659 14.767C151.659 17.8605 153.889 19.4224 156.092 19.4224C157.293 19.4224 158.215 19.0357 159.053 18.1739V18.538C159.053 20.2924 157.566 21.0915 156.185 21.0915C155.352 21.0915 154.531 20.553 154.15 20.0205C154.136 20.0009 154.115 19.988 154.091 19.9843C154.067 19.9805 154.044 19.9858 154.024 20.0001L152.453 21.1459C152.434 21.1602 152.42 21.1821 152.417 21.207C152.414 21.2312 152.421 21.2561 152.436 21.275C153.351 22.4071 154.787 23.0831 156.276 23.0831C157.535 23.0831 158.709 22.6413 159.584 21.8399C160.538 20.9638 161.043 19.7524 161.043 18.3355V10.3865C161.043 10.3374 161.003 10.2966 160.953 10.2966M156.479 17.4323C154.967 17.4323 153.87 16.2963 153.87 14.7307C153.87 13.2512 155.041 12.0473 156.479 12.0473C157.918 12.0473 159.052 13.2595 159.052 14.7488C159.052 16.2382 157.946 17.4323 156.479 17.4323" fill="#550FED"></path><path d="M171.942 10.2958H170.019C169.969 10.2958 169.929 10.3359 169.929 10.3857V11.2505C169.336 10.499 168.31 10.0557 167.135 10.0557C164.25 10.0557 162.312 12.5389 162.312 14.8591C162.312 17.1792 164.082 19.6625 167.042 19.6625C168.191 19.6625 169.276 19.2026 169.929 18.4496V19.3325C169.929 19.3823 169.969 19.4224 170.018 19.4224H171.941C171.991 19.4224 172.031 19.3823 172.031 19.3325V10.3857C172.031 10.3366 171.991 10.2958 171.941 10.2958M167.283 17.6717C165.763 17.6717 164.525 16.4096 164.525 14.8591C164.525 13.3086 165.763 12.0465 167.283 12.0465C168.803 12.0465 170.003 13.3342 170.003 14.8591C170.003 16.384 168.757 17.6717 167.283 17.6717Z" fill="#550FED"></path><path d="M178.959 10.3472C178.667 10.1591 178.276 10.0557 177.857 10.0557C177.153 10.0557 176.522 10.4348 176.153 11.0617V10.3857C176.153 10.3359 176.113 10.2958 176.064 10.2958H174.252C174.203 10.2958 174.163 10.3359 174.163 10.3857V19.3325C174.163 19.3823 174.203 19.4224 174.252 19.4224H176.175C176.224 19.4224 176.265 19.3823 176.265 19.3325V13.4173C176.265 12.5986 176.905 12.1575 177.506 12.1575C177.672 12.1575 178.005 12.264 178.171 12.3962C178.193 12.4143 178.224 12.4204 178.251 12.4128C178.279 12.4045 178.301 12.3841 178.311 12.3569L178.995 10.4529C179.009 10.4137 178.995 10.3699 178.959 10.3472" fill="#550FED"></path></svg>