<svg xmlns:xlink="http://www.w3.org/1999/xlink" width="114" height="20" viewBox="0 0 114 20" fill="none" xmlns="http://www.w3.org/2000/svg"><path d="M44.3252 1.73616C44.3252 1.2757 44.5061 0.834103 44.8282 0.50851C45.1503 0.182917 45.5872 0 46.0427 0C46.4982 0 46.9351 0.182917 47.2572 0.50851C47.5793 0.834103 47.7602 1.2757 47.7602 1.73616C47.7436 2.1854 47.5554 2.61066 47.2351 2.92256C46.9148 3.23446 46.4875 3.40872 46.0427 3.40872C45.598 3.40872 45.1706 3.23446 44.8503 2.92256C44.53 2.61066 44.3418 2.1854 44.3252 1.73616Z" fill="#273B7D"></path><path d="M71.4229 13.3134C71.4229 12.3498 72.1906 11.5711 73.1367 11.5711C73.5935 11.5711 74.0318 11.7546 74.3548 12.0811C74.6778 12.4076 74.8592 12.8504 74.8592 13.3122C74.8592 13.7739 74.6778 14.2168 74.3548 14.5433C74.0318 14.8698 73.5935 15.0532 73.1367 15.0532C72.1918 15.0532 71.4229 14.2734 71.4229 13.3122" fill="#499FDD"></path><path d="M16.1358 12.5614C14.6576 12.5614 13.629 11.3741 13.629 9.67656C13.629 7.98028 14.6575 6.79421 16.137 6.79421C17.6237 6.79421 18.663 7.98028 18.663 9.67656C18.663 11.4007 17.6464 12.5614 16.1358 12.5614ZM16.1358 4.25885C13.0071 4.25885 10.7358 6.53789 10.7358 9.67656C10.7358 12.8165 13.0083 15.0943 16.1358 15.0943C19.2778 15.0943 21.5573 12.8165 21.5573 9.67777C21.5573 6.53789 19.2777 4.25885 16.137 4.25885H16.1358ZM40.996 9.9486C40.8872 9.7357 40.7495 9.53915 40.587 9.36463L40.4913 9.26428L40.5919 9.16756C40.7354 9.01401 40.8824 8.83265 41.0236 8.62228L43.7863 4.47285H40.4328L38.3577 7.71912C38.2404 7.89323 38.0037 7.98028 37.6485 7.98028H37.176V1.84318C37.176 0.616006 36.419 0.449158 35.6021 0.449158H34.2027L34.2063 14.9347H37.1772V10.5894H37.4559C37.7944 10.5894 38.024 10.6293 38.1304 10.8155L39.7689 13.9421C40.227 14.7909 40.6827 14.9347 41.5414 14.9347H43.8174L42.1215 12.1007L40.9973 9.9486H40.996ZM55.4176 4.23467C53.9058 4.23467 52.9418 4.91415 52.4012 5.48844L52.2219 5.67222L52.1573 5.42195C51.9994 4.80654 51.4636 4.46922 50.6587 4.46922H49.3275L49.3359 14.9311H52.2864V10.1094C52.2864 9.63787 52.3462 9.22922 52.4706 8.85562C52.7983 7.72517 53.7144 7.02272 54.859 7.02272C55.7799 7.02272 56.14 7.5148 56.14 8.78429V13.3412C56.14 14.4245 56.6363 14.9311 57.7091 14.9311H59.1132L59.1085 8.27649C59.1085 5.63353 57.8323 4.23587 55.4176 4.23587V4.23467ZM46.0755 4.47285H44.6774L44.6869 12.5626V14.9347H46.1784L46.231 14.9371L46.9271 14.9347H47.6184V14.9311H47.6232L47.6291 6.06274C47.6291 4.99273 47.1233 4.47406 46.0768 4.47406L46.0755 4.47285ZM27.7239 12.5614C26.2457 12.5614 25.2159 11.3741 25.2159 9.67656C25.2159 7.98028 26.2457 6.79421 27.7252 6.79421C29.2082 6.79421 30.2512 7.98028 30.2512 9.67656C30.2512 11.4007 29.2345 12.5614 27.7252 12.5614H27.7239ZM27.7239 4.25885C24.5928 4.25885 22.3204 6.53789 22.3204 9.67656C22.3204 12.8165 24.5928 15.0943 27.7252 15.0943C30.8623 15.0943 33.1466 12.8165 33.1466 9.67777C33.1466 6.53789 30.8623 4.25885 27.7252 4.25885" fill="#273B7D"></path><path d="M90.962 12.5614C89.4837 12.5614 88.4527 11.3741 88.4527 9.6766C88.4527 7.98032 89.4837 6.79426 90.962 6.79426C92.4475 6.79426 93.4893 7.98032 93.4893 9.6766C93.4893 11.4007 92.4726 12.5614 90.962 12.5614ZM90.962 4.25891C87.8308 4.25891 85.5596 6.53794 85.5596 9.6766C85.5596 12.8165 87.8308 15.0943 90.962 15.0943C94.1004 15.0943 96.3837 12.8165 96.3837 9.67781C96.3837 6.53794 94.0992 4.25891 90.962 4.25891Z" fill="#499FDD"></path><path d="M65.3263 12.1009C63.7129 12.1009 63.1388 10.6791 63.1388 9.34545C63.1388 8.75786 63.2859 6.84396 65.172 6.84396C66.1085 6.84396 67.3559 7.11479 67.3559 9.44338C67.3559 11.6402 66.252 12.1009 65.3263 12.1009ZM68.888 4.44525C68.3283 4.44525 67.8977 4.67134 67.6813 5.08362L67.5999 5.24321L67.4636 5.12231C66.9876 4.7064 66.1336 4.21191 64.7474 4.21191C61.9882 4.21191 60.1309 6.30716 60.1309 9.42283C60.1309 12.5373 62.0529 14.7136 64.8025 14.7136C65.7414 14.7136 66.484 14.4911 67.0725 14.0414L67.2997 13.8685V14.1586C67.2997 15.5563 66.4063 16.3276 64.7857 16.3276C63.9975 16.3276 63.2811 16.1342 62.8004 15.9577C62.176 15.7667 61.8076 15.925 61.5553 16.5598L61.3209 17.1449L60.9895 18.0009L61.1941 18.111C62.2322 18.6671 63.5826 18.9996 64.8025 18.9996C67.3141 18.9996 70.2491 17.6999 70.2491 14.0414L70.2599 4.44525H68.888Z" fill="#273B7D"></path><path d="M5.14881 12.4413L2.74723 12.4388V9.53718C2.74723 8.91574 2.98523 8.59413 3.51028 8.51917H5.14881C6.31731 8.51917 7.07317 9.26394 7.07436 10.4693C7.07317 11.7074 6.33644 12.4401 5.14881 12.4401V12.4413ZM2.74723 4.61156V3.84744C2.74723 3.17885 3.02711 2.86087 3.64066 2.81976H4.87017C5.92386 2.81976 6.55534 3.45692 6.55534 4.52451C6.55534 5.33698 6.12237 6.28608 4.90842 6.28608H2.74723V4.61156ZM8.21541 7.50841L7.78121 7.26177L8.16036 6.93412C8.60169 6.55086 9.33966 5.68881 9.33966 4.20169C9.33966 1.92386 7.59347 0.453674 4.8893 0.453674H1.45194C1.06517 0.467929 0.698668 0.63207 0.428356 0.912079C0.158044 1.19209 0.00465769 1.5665 0 1.95771V14.8823H4.95025C7.95582 14.8823 9.89576 13.2283 9.89576 10.6664C9.89576 9.28691 9.26909 8.1081 8.21541 7.50841Z" fill="#273B7D"></path><path d="M109.565 4.26984C108.956 4.27211 108.355 4.41268 107.807 4.68116C107.259 4.94965 106.777 5.33919 106.398 5.82102L106.185 6.09425L106.018 5.78837C105.47 4.78126 104.53 4.26984 103.223 4.26984C101.851 4.26984 100.931 5.04361 100.504 5.50304L100.224 5.80892L100.117 5.40632C99.9612 4.82599 99.4506 4.50802 98.678 4.50802H97.4377L97.4257 14.9298H100.242V10.3294C100.242 9.92564 100.293 9.52787 100.392 9.11076C100.661 7.99846 101.4 6.80274 102.643 6.92243C103.408 6.99739 103.784 7.59586 103.784 8.75168V14.9298H106.621V10.3294C106.621 9.8253 106.667 9.44808 106.78 9.07087C107.007 8.00934 107.78 6.92123 108.978 6.92123C109.846 6.92123 110.167 7.41692 110.167 8.75168V13.4064C110.167 14.4582 110.631 14.9298 111.673 14.9298H112.998L113 8.27654C113 5.6179 111.842 4.26984 109.565 4.26984ZM83.9298 11.3112C83.9215 11.322 82.7099 12.6133 81.1132 12.6133C79.6589 12.6133 78.1902 11.7113 78.1902 9.69835C78.1902 7.95977 79.3288 6.74471 80.9602 6.74471C81.4888 6.74471 82.0916 6.93573 82.1861 7.25854L82.1992 7.31295C82.2595 7.53519 82.3906 7.73112 82.5723 7.87036C82.7539 8.0096 82.9759 8.08438 83.2039 8.0831L84.7468 8.08551V6.72174C84.7468 4.92271 82.4827 4.26984 80.9602 4.26984C77.7022 4.26984 75.3389 6.56214 75.3389 9.72011C75.3389 12.8756 77.6759 15.1655 80.9004 15.1655C83.6967 15.1655 85.218 13.3072 85.2324 13.2891L85.3137 13.1876L84.0913 11.1383L83.9298 11.3112Z" fill="#499FDD"></path></svg>