<svg xmlns:xlink="http://www.w3.org/1999/xlink" xmlns="http://www.w3.org/2000/svg" fill="none" focusable="false" viewBox="0 0 32 32" width="32"  height="32" ><path d="M19.9681 24.271C19.839 24.271 19.7235 24.2269 19.6216 24.1313C19.5196 24.0357 19.4721 23.9033 19.4721 23.7415V14.1957H18.779C18.6499 14.1957 18.5615 14.2178 18.5208 14.2693C18.4732 14.3208 18.4461 14.4237 18.4189 14.5928L17.7258 18.7921H18.3849C18.5412 18.7921 18.6635 18.8436 18.7654 18.9539C18.8673 19.0642 18.9149 19.1893 18.9149 19.329C18.9149 19.4981 18.8673 19.6305 18.7654 19.7408C18.6703 19.8438 18.5412 19.9026 18.3849 19.9026H17.1008C16.9445 19.9026 16.8154 19.8291 16.7067 19.6894C16.5979 19.5717 16.5639 19.4319 16.6046 19.2628L17.3929 14.4531C17.5016 13.5486 17.9637 13.0999 18.7722 13.0999H19.9545C20.0836 13.0999 20.2059 13.1588 20.3146 13.2765C20.4233 13.3941 20.4777 13.5265 20.4777 13.6662V23.7489C20.4777 23.9107 20.43 24.0431 20.3348 24.1387C20.2465 24.2196 20.1176 24.271 19.9681 24.271ZM13.5811 24.3078C13.452 24.3078 13.3365 24.2563 13.2346 24.146C13.1326 24.0357 13.0851 23.9033 13.0851 23.7342V18.2479C13.0851 17.9832 13.1735 17.8214 13.3502 17.7478L14.6955 16.9977V13.6515C14.6955 13.4824 14.743 13.35 14.845 13.2397C14.9469 13.1294 15.0624 13.0779 15.1915 13.0779C15.3478 13.0779 15.4701 13.1294 15.572 13.2397C15.6739 13.35 15.7215 13.4824 15.7215 13.6515V17.3213C15.7215 17.5346 15.6194 17.7037 15.4224 17.8214L14.1043 18.5715V23.7342C14.1043 23.896 14.0567 24.0357 13.9548 24.146C13.8597 24.249 13.7374 24.3078 13.5811 24.3078ZM13.3162 16.6079C13.1599 16.6079 13.0376 16.5564 12.9356 16.4461C12.8337 16.3358 12.7862 16.2108 12.7862 16.0711V13.6515C12.7862 13.4824 12.8337 13.35 12.9356 13.2397C13.0376 13.1294 13.1599 13.0779 13.3162 13.0779C13.4521 13.0779 13.5608 13.1294 13.6627 13.2397C13.7578 13.35 13.8122 13.4824 13.8122 13.6515V16.0711C13.8122 16.2108 13.7646 16.3358 13.6627 16.4461C13.5676 16.5564 13.4521 16.6079 13.3162 16.6079ZM11.5767 16.6079C11.4205 16.6079 11.2981 16.5564 11.1962 16.4461C11.0943 16.3358 11.0467 16.2108 11.0467 16.0711V13.6515C11.0467 13.4824 11.0943 13.35 11.1962 13.2397C11.2981 13.1294 11.4205 13.0779 11.5767 13.0779C11.7126 13.0779 11.8213 13.1294 11.9233 13.2397C12.0184 13.35 12.0727 13.4824 12.0727 13.6515V16.0711C12.0727 16.2108 12.0252 16.3358 11.9233 16.4461C11.8213 16.5564 11.7058 16.6079 11.5767 16.6079ZM22.5975 30H8.0572C7.90093 30 7.77178 29.9412 7.66306 29.8235C7.55435 29.7058 7.5 29.5587 7.5 29.3969V12.2321C7.5 12.063 7.55435 11.9233 7.66306 11.8056C7.77178 11.6879 7.90772 11.6291 8.0572 11.6291C8.23386 11.6291 8.37646 11.6879 8.48518 11.8056C8.59389 11.9233 8.64824 12.063 8.64824 12.2321V28.7939H22.5975C23.1207 28.7939 23.3858 28.4997 23.3858 27.904V8.74623H8.77746C8.64837 8.74623 8.53285 8.69475 8.43093 8.6065C8.32902 8.5109 8.26785 8.39324 8.24747 8.24615C8.17952 7.91521 8.28822 7.68722 8.57359 7.56955L20.9125 2.04651C21.1095 1.97296 21.2862 1.98768 21.4356 2.08329C21.6123 2.23037 21.7006 2.40686 21.7006 2.62014V5.25297C21.7006 5.42212 21.6462 5.56184 21.5375 5.6795C21.4288 5.79717 21.2862 5.85602 21.1095 5.85602C20.9532 5.85602 20.8241 5.79717 20.7154 5.6795C20.6067 5.56184 20.5523 5.41476 20.5523 5.25297V3.50265L11.6039 7.52543H23.9428C24.0923 7.52543 24.2282 7.58425 24.3369 7.70192C24.4457 7.81959 24.5 7.96669 24.5 8.12848V27.8967C24.5 28.5145 24.3233 29.0219 23.97 29.4117C23.6303 29.8088 23.1682 30 22.5975 30Z" fill="#1B0088"></path></svg>