<svg width="200" height="61" viewBox="0 0 200 61" fill="none" xmlns="http://www.w3.org/2000/svg">
<path d="M129.67 47.1187V60.8416H131.831V47.1187H129.67ZM167.394 47.1187V60.8416H178.479V58.8398H169.555V54.5465H177.326V52.7027H169.555V48.9888H178.188V47.1318H167.394V47.1187ZM75.9673 47.1187V60.8416H78.1286V47.1187H75.9673ZM111.676 60.8548H121.754V58.9979H113.837V47.1318H111.676V60.8548ZM95.1145 54.8494C93.5366 54.8494 91.9454 54.4148 90.9377 53.8485V48.699H96.5599C99.2914 48.699 100.299 50.1346 100.299 51.412C100.299 53.269 98.8538 54.8494 95.1145 54.8494ZM61.7129 55.4157H55.3747L58.5438 48.9756L61.7129 55.4157ZM144.507 60.8548V49.5551L154.015 60.2753C154.307 60.7099 154.731 60.8416 155.314 60.8416H156.614V47.1187H154.598V57.9838L145.224 47.6981C144.932 47.2635 144.653 47.1318 143.924 47.1318H142.479V60.8548H144.507ZM90.9377 60.8548V55.8503C91.9454 56.4166 93.3907 56.7063 94.9687 56.7063C95.8306 56.7063 96.414 56.7063 97.13 56.5614L100.007 60.8548H102.315L99.1455 55.9951C101.161 55.1391 102.46 53.427 102.46 51.4252C102.46 48.8571 100.299 46.987 96.414 46.987H88.7763V60.8548H90.9377ZM64.3119 60.8548H66.46L59.9892 47.6981C59.6974 47.2635 59.419 47.1318 58.9814 47.1318H57.4035L50.641 60.8548H52.8023L54.5261 57.2858H62.5881L64.3119 60.8548ZM194.325 46.8421C190.586 46.8421 188.132 48.4225 188.132 50.8457C188.132 53.1373 190.002 53.9933 193.025 54.5596L194.471 54.8494C196.632 55.284 197.786 55.9951 197.786 57.1409C197.786 58.2867 196.632 59.1427 193.755 59.1427C191.169 59.1427 189.14 58.2867 188.57 57.8521L188 59.8539C188.57 60.1436 190.585 60.9997 193.609 60.9997C197.64 60.9997 199.947 59.4325 199.947 56.996C199.947 54.7045 197.931 53.5587 194.762 52.9924L193.317 52.7027C191.01 52.2681 190.294 51.8466 190.294 50.7009C190.294 49.5551 191.593 48.699 194.179 48.699C196.34 48.699 197.918 49.1337 198.647 49.4102L199.085 47.6981C198.21 47.4084 196.619 46.8421 194.325 46.8421Z" fill="white"/>
<path d="M114.156 32.131H120.229V15.3263L130.837 14.6283V10.2954H103.548V14.6283L114.156 15.3263V32.131ZM70.3318 32.131L72.8247 27.1001H58.0797V10.2954H51.768V32.131H70.3318ZM93.8018 23.6892H85.6205L89.7575 14.9444L93.8018 23.6892ZM148.698 23.6892H140.503L144.64 14.9444L148.698 23.6892ZM176.451 26.7972C176.689 27.5743 177.617 28.1142 178.638 28.1142H184.95L189.631 15.2605L194.073 32.1442H200L195.094 12.7845C194.63 10.8486 193.529 10.3086 191.739 10.3086H185.573L181.131 23.0833L177.617 12.2314C177.153 10.8486 176.291 10.2954 174.886 10.2954H167.951L162.262 32.131H168.269L172.632 15.2473L176.451 26.7972ZM152.835 32.131H159.465L149.016 11.6783C148.472 10.6774 147.929 10.2823 146.682 10.2823H140.914L129.922 32.1179H136.631L138.58 28.0879H150.899L152.835 32.131ZM97.8593 32.131H104.569L94.12 11.6783C93.5764 10.6774 93.0327 10.2823 91.773 10.2823H86.005L75.0126 32.1179H81.7088L83.658 28.0879H95.9764L97.8593 32.131Z" fill="white"/>
<path d="M8.97702 54.3099L14.3605 52.3607C15.4876 51.9525 15.4876 52.848 15.4876 54.1913V56.6541C15.4876 58.6427 14.8114 58.8798 13.9229 59.209L8.97702 61.0001V54.3099Z" fill="white"/>
<path d="M8.97702 43.405L22.6479 38.4663C23.775 38.058 23.775 38.9536 23.775 40.2969V42.7465C23.775 44.7483 23.0988 44.9854 22.2104 45.3146L8.97702 50.0953V43.405Z" fill="white"/>
<path d="M7.84984 27.8508L0.901671 25.3353C3.57628e-07 25.0061 0 23.7944 0 23.3598C0 23.3598 -1.3113e-06 24.8217 1.33924 24.3344L35.4171 12.0206C38.1088 11.0461 38.1088 10.2954 36.9818 9.88711C38.1088 10.2954 38.1088 10.2954 38.1088 13.5615C38.1088 16.6827 38.1088 17.7232 36.7696 18.2104L10.0908 27.8508C8.97692 28.259 8.97692 28.259 7.84984 27.8508Z" fill="white"/>
<path d="M36.9951 20.8051C38.1222 21.2134 38.1222 21.964 35.4304 22.9386L8.97702 32.4999V39.177L36.7829 29.1284C38.1222 28.6411 38.1222 27.6007 38.1222 24.4795C38.1222 21.2002 38.1222 21.2002 36.9951 20.8051Z" fill="white"/>
<path d="M2.91739 15.1557L14.8247 19.4623L24.0669 16.1171L1.80356 8.07035C0.238892 7.50405 0.0134746 7.42503 0.0134746 8.53129V11.4287C0.000214741 14.1021 2.02897 14.8396 2.91739 15.1557Z" fill="#ED1650"/>
<path d="M36.9954 20.8054L33.3092 19.4621L24.0671 22.8073L29.9147 24.9276L35.4308 22.939C38.1225 21.9512 38.1225 21.2005 36.9954 20.8054Z" fill="#ED1650"/>
<path d="M36.9952 9.88745C36.9952 9.88745 12.3318 0.971477 10.7672 0.405174C9.20252 -0.161129 8.9771 -0.240148 8.9771 0.866118V3.76348C8.9771 6.43695 10.9926 7.1613 11.8943 7.49054L29.9277 14.0096L35.4438 12.021C38.1223 11.0464 38.1223 10.2957 36.9952 9.88745Z" fill="#ED1650"/>
<path d="M1.35251 24.3353L8.97693 21.5828L1.80335 18.9883C0.238685 18.422 0.0132679 18.343 0.0132679 19.4493V23.3607C8.09133e-06 23.3607 8.9407e-06 24.8226 1.35251 24.3353Z" fill="#ED1650"/>
</svg>
