<?xml version="1.0" encoding="UTF-8"?>
<svg id="Capa_1" xmlns="http://www.w3.org/2000/svg" version="1.1" xmlns:xlink="http://www.w3.org/1999/xlink" viewBox="0 0 1223.23 266.34">
  <!-- Generator: Adobe Illustrator 29.2.1, SVG Export Plug-In . SVG Version: 2.1.0 Build 116)  -->
  <defs>
    <style>
      .st0 {
        fill: #edb72c;
      }

      .st1 {
        fill: #edb82b;
      }

      .st2 {
        fill: #fff;
      }

      .st3 {
        fill: #ff2318;
      }

      .st4 {
        fill: none;
      }

      .st5 {
        fill: #ff7900;
      }

      .st6 {
        fill: #004dff;
      }

      .st7 {
        clip-path: url(#clippath);
      }
    </style>
    <clipPath id="clippath">
      <path class="st4" d="M1020.05,204.78c22.63,0,39.66-23.53,39.66-63.64,0-45.04-19.94-81.79-47.73-81.79-23.53,0-40.33,23.75-40.33,64.31,0,46.38,19.94,81.11,48.4,81.11Z"/>
    </clipPath>
  </defs>
  <g>
    <rect class="st1" x="1048.67" y="52.22" width="146.47" height="47.19" rx="23.38" ry="23.38"/>
    <g>
      <path class="st2" d="M1105.74,67.5v21.34h-4.78v-2.88c-1.58,2.11-3.97,3.36-7.05,3.36-6.12,0-10.57-4.78-10.57-11.14s4.45-10.85,10.57-10.85c3.08,0,5.47,1.13,7.05,3.2v-3.04h4.78ZM1100.8,78.19c0-3.93-2.51-6.6-6.2-6.6s-6.11,2.79-6.11,6.6,2.59,6.6,6.11,6.6,6.2-2.71,6.2-6.6Z"/>
      <path class="st2" d="M1130.61,75.52v13.32h-5.18v-12.35c0-3.08-1.9-4.9-4.82-4.9-2.79.04-4.9,2.03-4.94,4.41v12.84h-5.14v-21.34h4.86v2.35c1.46-1.66,3.81-2.84,6.72-2.84,5.26,0,8.51,3.44,8.51,8.51ZM1116.59,63.61l-3.52-1.5c.49-2.11,1.86-4.54,4.74-4.54,2.51,0,3.32,1.98,5.18,1.98.97,0,1.7-.69,1.94-1.82l3.56,1.54c-.57,2.23-1.82,4.54-4.74,4.54-2.55,0-3.4-1.98-5.14-1.98-1.05,0-1.78.69-2.02,1.78Z"/>
      <path class="st2" d="M1134.04,78.19c0-6.4,4.7-11.18,11.38-11.18s11.38,4.78,11.38,11.18-4.74,11.14-11.38,11.14-11.38-4.78-11.38-11.14ZM1151.62,78.15c0-3.81-2.47-6.52-6.16-6.52s-6.28,2.71-6.28,6.56,2.55,6.56,6.28,6.56,6.16-2.75,6.16-6.6Z"/>
      <path class="st2" d="M1158.75,83.87l4.5-1.74c.61,1.98,2.27,3.16,4.86,3.16,2.07,0,3.36-.85,3.36-2.35,0-4.21-11.7-2.27-11.7-9.6,0-3.89,3.24-6.32,8.26-6.32,4.13,0,7.13,1.7,8.02,4.62l-4.5,1.74c-.57-1.62-1.82-2.39-3.6-2.39-1.9,0-2.92.81-2.92,2.11,0,3.89,11.7,1.66,11.7,9.48,0,4.25-3.48,6.76-8.83,6.76-4.62,0-7.98-1.86-9.15-5.47Z"/>
    </g>
    <path class="st2" d="M799.68,208.97v-.45c0-4.26,10.31-4.7,10.31-13.89v-113.6c0-13.44-14.12-5.38-14.12-12.32v-.67c0-2.02,1.57-3.14,4.26-4.26l24.65-10.53c6.05-2.69,9.64-.22,9.64,3.36,0,4.48-5.6,5.6-5.6,15.69v122.34c0,9.19,10.98,9.63,10.98,13.89v.45c0,1.79-1.34,2.69-4.03,2.69h-32.04c-2.91,0-4.03-.9-4.03-2.69Z"/>
    <path class="st2" d="M951.5,130.98c0-50.19,23.75-80.89,63.86-80.89,36.52,0,64.08,33.16,64.08,82.01,0,51.31-26.66,81.56-62.52,81.56s-65.43-31.59-65.43-82.68ZM1019.84,204.7c22.63,0,39.66-23.53,39.66-63.64,0-45.04-19.94-81.79-47.73-81.79-23.53,0-40.33,23.75-40.33,64.31,0,46.38,19.94,81.11,48.4,81.11Z"/>
    <path class="st2" d="M878.88,206.27l68.57-138.25h-72.15c-10.76,0-11.88,20.39-18.6,20.39h-1.79c-2.24,0-3.81-1.57-3.36-4.48l4.7-26.44c.67-3.36,2.24-5.15,5.83-5.15h95.68c2.69,0,4.03,1.12,4.03,3.59v2.02c0,1.34-.9,4.71-2.24,7.84l-60.05,141.84c-.9,2.46-3.14,3.81-5.6,3.81h-11.65c-3.36,0-4.48-3.14-3.36-5.15Z"/>
    <g class="st7">
      <g>
        <path class="st0" d="M1094.94,175.18c-.56-.09-1.13.1-2.27.41-.9.25-1.15.41-2.12.73-.4.13-1.51.49-2.72.69-.86.14-2.1.25-3.64.06-1.45,2.04-4.65,6-9.82,8.48-3.05,1.46-6.02,2.03-7.2,2.23-2.06.34-3.68.36-4.28.36-3.75,0-7.44-.83-10.87-2.46-.64-.3-1-1.03-.83-1.71.09-.36.3-.6.35-.65.37-.36.98-.44,1.56-.22.47.24,1.19.59,2.1.95,1.19.46,4.24,1.51,8.34,1.41,1.4-.03,2.48-.19,2.9-.26,3.55-.57,6.24-1.93,7.83-2.9,3.18-1.95,4.98-4.18,6.02-5.48,1.04-1.29,1.51-2.22,2.46-4.09.25-.5.55-1.11.58-1.94.01-.39.06-1.56-.78-2.46-.96-1.02-2.37-.94-2.8-.92-.53.03-.83.15-1.4.33-1.64.51-2.95.67-4.78.9-1.38.17-2.47.22-2.96.23-.84.03-2.35.04-4.15-.14-1.12-.11-3.73-.45-6.92-1.53-3.72-1.26-6.45-2.94-8.04-4.05-1.22-.85-3.02-2.22-4.92-4.2-.45-.47-1.8-1.91-3.31-4.07-1.65-2.36-3-4.9-3.68-7.64-.24-.96-.41-2-.02-3.11.39-1.09,1.16-1.81,1.39-2.02.27-.25.78-.66,1.49-.96.46-.2.83-.28.96-.31.94-.22,2.82-.99,4.34-2.24.31-.26,1.92-1.62,2.95-4.04.27-.63.91-2.17.88-4.2,0-.55-.07-.7-.67-3.84-.37-1.93-.56-2.9-.59-3.15-.3-2.43.13-2.92-.03-5.19-.07-1-.2-2.74-1.03-4.7-.23-.56-1.17-2.67-3.32-4.65-.72-.66-2.81-2.44-6.1-3.27-3.04-.77-5.47-.31-5.94-.22-.85.17-3.51.79-5.87,2.83-.17.15-1.18,1.22-3.19,3.37-1.43,1.53-1.67,1.77-2.14,2.15-1.88,1.5-4.09,2.06-4.09,2.06-.46.11-2.11.49-4.17.16-.6-.1-1.63-.26-2.81-.84-.82-.4-1.01-.66-1.78-.91-.46-.15-1.35-.44-2.39-.21-1.39.3-2.19,1.35-2.44,1.7-.26.45-.58,1.16-.64,2.07-.11,1.48.54,2.59,1.15,3.62.99,1.66,2.11,2.65,3.14,3.54,1.11.96,2.51,2.18,4.62,3,.88.34,1.4.43,2.7,1.01,1.07.48,1.77.79,2.58,1.39.47.35,1.57,1.24,2.47,2.76.4.68,1.04,1.93,1.26,3.59.37,2.76-.64,4.94-1.03,5.73-1.57,3.24-3.61,3.46-7.14,6.88-3.04,2.94-4.69,5.85-5.42,7.15-.81,1.45-2.94,5.57-3.6,11.34-.24,2.08-.91,9.71,3,17.41,2.17,4.27,5.29,7.65,6.44,8.91,1.11,1.21,2.09,2.16,2.81,2.82,2.58,2.54,4.9,4.22,6.57,5.28,2,1.28,4.2,2.69,6.75,3.83.22.1.58.26,1.04.51,0,0,.5.27.94.55,2.03,1.3,3.26,3.18,3.26,3.18,1.45,2.23,1.59,4.48,1.61,5.27.02,1.06-.27,4.08-2.19,6.57-3.03,3.91-10.24,4.98-15.24,6.31-1.35.36-1.27,2.26.4,2.4.55.02,3.58-.58,3.58-.58,0,0,.89-.19,1.39.59.71,1.09,1.27,1.97,2.58,2.07,1.85.14,3.12-1.7,8.64-2.08,3.82-.26,4.42.81,6.43.43.36-.07.68-.24.94-.46.03-.02.06-.04.09-.07,1.41-1.36,2.86-.5,3.26.08.63.9.5,2.09,2.36,2.16,1.86.08,2.62-1.83,8.72-2.28,3.24-.24,4.41.7,5.87.68.87-.01,1.84-.98,1.66-1.92-.15-.79-.83-1.86-.83-1.86-.62-1.56-1.36-4.03-1.26-7.08.17-5.07,2.53-8.5,3.02-9.18,2.58-3.63,5.94-5.18,7.35-5.73,2.84-1.47,6.22-3.54,9.7-6.47,4.16-3.5,6.81-6.84,7.98-8.39,1.03-1.37,1.72-2.44,2.65-3.89,0,0,1.49-2.32,3.27-6.19.37-.81.54-1.26.52-1.88-.04-1.65-1.74-3.28-3.46-3.54ZM1058.22,220.1c-2.25,3.54-5.23,5.19-6.21,5.69-3.06,1.56-5.87,1.73-7.3,1.72-.74-.74-2.58-2.8-3.03-5.92-.69-4.73,1.25-11.19,9.7-12.8,2.55-.49,6.82.48,9.34,3.38-.07,1.47-.41,4.65-2.5,7.94Z"/>
        <path class="st2" d="M1038.45,119.15c-.17.5-.7.77-1.2.64-.02,0-.05-.01-.07-.02-.52-.18-.8-.75-.62-1.27.03-.08.66-2.04-.66-2.61-1.36-.59-2.5,1.29-2.55,1.37-.28.47-.9.63-1.37.35-.47-.28-.63-.89-.35-1.37.71-1.21,2.69-3.22,5.07-2.19,2.42,1.05,2.21,3.79,1.76,5.1Z"/>
      </g>
    </g>
  </g>
  <g>
    <rect class="st2" x="32.02" y="65.65" width="131.89" height="132.45"/>
    <g>
      <path class="st2" d="M254.54,166.64c3.46,0,6.74-.58,9.69-1.44l1.81-9.81c-2.75-1.25-6.2-1.82-10.05-1.82-5.38,0-9.37,1.82-10.17,6.15-.76,4.14,2,6.92,8.73,6.92M277.73,145.6l-4.62,25.03c-5.89,2.61-14.26,4.55-22,4.55-13.53,0-19.15-5.7-17.46-14.88,1.75-9.47,10.91-14.59,22-14.5,4.35,0,8.02.58,10.99,1.74l.48-2.61c1.01-5.51-2.05-8.8-9.39-8.8-5.51,0-10.54,2.13-13.51,4.06-2.45-1.35-3.83-3.87-3.72-7.05,3.19-2.61,10.85-6.47,19.75-6.47,12.08,0,19.98,5.41,17.48,18.93"/>
      <path class="st2" d="M564.48,166.64c3.45,0,6.74-.58,9.69-1.44l1.81-9.81c-2.75-1.25-6.2-1.82-10.05-1.82-5.38,0-9.37,1.82-10.17,6.15-.76,4.14,1.99,6.92,8.73,6.92M587.67,145.6l-4.62,25.03c-5.89,2.61-14.27,4.55-22,4.55-13.53,0-19.15-5.7-17.46-14.88,1.75-9.47,10.91-14.59,22-14.5,4.35,0,8.02.58,10.99,1.74l.48-2.61c1.01-5.51-2.05-8.8-9.39-8.8-5.51,0-10.54,2.13-13.51,4.06-2.45-1.35-3.82-3.87-3.72-7.05,3.19-2.61,10.86-6.47,19.75-6.47,12.08,0,19.98,5.41,17.48,18.93"/>
      <path class="st2" d="M330.66,151.01c2.71-14.69,14.94-24.46,28.77-24.46,6.86,0,12.16,2.71,14.5,5.22-1.34,3.1-4.12,6.08-7.34,7.83-1.96-1.93-4.66-3.58-8.81-3.58-8.99,0-14.5,6.86-15.98,14.88-1.44,7.83,1.44,14.78,10.61,14.78,5.41,0,8.63-2.22,10.86-3.87,2.54,1.45,4.09,4.06,4.42,7.45-3.53,2.9-9.88,5.89-17.13,5.89-14.59,0-22.71-8.89-19.9-24.16"/>
      <path class="st2" d="M408.28,150.91c1.62-8.79-2.28-14.88-10.5-14.88s-14.36,6.09-15.98,14.88c-1.6,8.7,2.32,14.69,10.54,14.69s14.34-5.99,15.95-14.69M370.78,150.91c2.62-14.21,14.83-24.35,28.94-24.35s22.22,10.05,19.58,24.35c-2.6,14.11-14.81,24.26-28.92,24.26s-22.23-9.95-19.6-24.26"/>
      <path class="st2" d="M465.46,169.47c1.51-3.48,3.83-6.09,6.41-7.54,2.44,2.03,6.02,4.54,13.27,4.54,6.48,0,9.24-2.42,9.81-5.51.57-3.09-1.72-4.82-9.7-6.09-7.88-1.26-15.06-4.25-13.28-13.92,1.57-8.5,10.27-14.3,21.87-14.3,8.31,0,13.78,2.32,16.39,4.44-1.11,3.38-3.06,6.09-5.6,7.83-2.85-1.84-7.28-3.48-12.79-3.48-5.8,0-8.65,1.84-9.19,4.74-.55,3,1.21,4.44,8.81,5.7,9.67,1.54,16.29,4.93,14.62,14.01-1.76,9.57-10.17,15.37-22.74,15.37-10.25,0-15.67-3.58-17.87-5.8"/>
      <path class="st2" d="M678.19,150.91c1.62-8.79-2.28-14.88-10.49-14.88s-14.36,6.09-15.98,14.88c-1.61,8.7,2.32,14.69,10.53,14.69s14.34-5.99,15.94-14.69M640.7,150.91c2.62-14.21,14.83-24.35,28.93-24.35s22.21,10.05,19.58,24.35c-2.6,14.11-14.81,24.26-28.92,24.26s-22.23-9.95-19.59-24.26"/>
      <path class="st2" d="M622.51,164.15c-3.1,1.06-6.18,1.55-9.35,1.45-8.31,0-12.98-5.61-11.33-14.59,1.64-8.89,8.78-14.6,16.9-14.6,3.29,0,6.21.38,8.52,2.03l-4.74,25.71ZM631.64,114.61l-2.51,13.59c-2.33-.97-5.14-1.44-9.01-1.44-13.72,0-26.66,9.37-29.44,24.45-2.85,15.46,5.83,23.97,20.9,23.97,7.44,0,15.45-2.03,20.65-4.55l10.91-59.2-11.51,3.18Z"/>
      <path class="st2" d="M546.21,128.59h-17.11l2.2-11.92-11.4,3.16-7.34,39.79c-2.03,11.01,4.4,15.46,14.25,15.46,6.28,0,11.39-2.51,14.63-4.93.16-2.99-1.19-6.09-3.23-7.64-1.7,1.36-4.92,3.1-8.2,3.1-4.54,0-7.41-1.74-6.17-8.51l3.62-19.62h17.11c.67-1.54,1.04-2.99,1.32-4.54.26-1.45.44-2.9.32-4.35"/>
      <path class="st2" d="M586.49,192.4l1.2-5.8c-.51-.37-1.17-.46-1.91-.46-1.83,0-3.47,1.29-3.88,3.29-.42,2.03.6,3.29,2.48,3.29.71.02,1.41-.09,2.12-.33M591.47,180.24l-2.83,13.63c-1.18.57-3,1.02-4.68,1.02-3.4,0-5.31-1.92-4.58-5.41.7-3.4,3.67-5.51,6.76-5.51.87,0,1.5.11,2.02.33l.84-4.05c.41-.09.83-.11,1.25-.11.39,0,.82.02,1.22.11"/>
      <path class="st2" d="M599.44,188.43c.25-1.22-.12-2.47-1.79-2.49-1.52,0-2.68,1.07-3.15,2.49h4.95ZM601.43,190.07h-7.29c-.16,1.7.67,2.75,2.39,2.75,1.5,0,2.5-.59,3.27-1.07.47.35.76,1.05.72,1.68-1.01.7-2.52,1.46-4.59,1.46-3.1,0-4.89-2.05-4.19-5.43.66-3.2,3.39-5.51,6.33-5.51,2.76,0,4.33,1.9,3.76,4.66-.11.55-.21.89-.39,1.46"/>
      <path class="st2" d="M602.3,193.6c.36-.79.89-1.37,1.48-1.7.54.46,1.34,1.02,2.97,1.02,1.46,0,2.09-.54,2.24-1.24.15-.7-.36-1.09-2.15-1.37-1.77-.28-3.37-.96-2.92-3.14.4-1.92,2.39-3.23,5-3.23,1.87,0,3.09.52,3.67,1-.27.76-.72,1.37-1.31,1.77-.63-.41-1.62-.78-2.86-.78-1.31,0-1.96.41-2.09,1.07-.14.67.25,1,1.96,1.29,2.17.35,3.65,1.11,3.22,3.16-.45,2.16-2.37,3.47-5.2,3.47-2.31,0-3.51-.81-4-1.31"/>
      <path class="st2" d="M620.58,192.4l1.2-5.8c-.51-.37-1.17-.46-1.91-.46-1.83,0-3.47,1.29-3.89,3.29-.42,2.03.61,3.29,2.48,3.29.71.02,1.41-.09,2.12-.33M625.56,180.24l-2.83,13.63c-1.18.57-3,1.02-4.67,1.02-3.4,0-5.31-1.92-4.59-5.41.71-3.4,3.67-5.51,6.76-5.51.87,0,1.5.11,2.02.33l.84-4.05c.41-.09.83-.11,1.24-.11.39,0,.82.02,1.22.11"/>
      <path class="st2" d="M633.54,188.43c.25-1.22-.12-2.47-1.79-2.49-1.53,0-2.68,1.07-3.15,2.49h4.94ZM635.53,190.07h-7.3c-.15,1.7.67,2.75,2.4,2.75,1.5,0,2.49-.59,3.27-1.07.47.35.76,1.05.72,1.68-1.02.7-2.52,1.46-4.59,1.46-3.09,0-4.89-2.05-4.18-5.43.66-3.2,3.38-5.51,6.32-5.51,2.77,0,4.33,1.9,3.76,4.66-.11.55-.21.89-.39,1.46"/>
      <path class="st2" d="M649.46,180.39l-2.94,14.17c-.43.09-.85.11-1.26.11-.39,0-.76-.02-1.15-.11l2.31-11.16-2.74,1.15c-.36-.46-.63-1.26-.5-2.11l4.5-2.05c.27-.07.61-.11.91-.11s.62.04.87.11"/>
      <path class="st2" d="M654.36,183.79c-.24,1.16.76,1.7,1.99,2.29.18.07.34.15.51.24,1.08-.7,1.76-1.35,1.97-2.35.26-1.24-.59-1.88-1.87-1.88-1.39,0-2.39.72-2.59,1.7M657.74,190.9c.26-1.27-.9-1.85-2.36-2.5-.22-.11-.44-.2-.63-.31-.98.63-1.97,1.61-2.22,2.83-.31,1.48.76,2.01,2.15,2.01,1.48,0,2.74-.5,3.05-2.03M660.15,190.61c-.66,3.18-3.46,4.29-5.95,4.29s-4.73-.92-4.14-3.75c.37-1.81,1.82-3.14,3.14-3.99-.97-.7-1.52-1.61-1.22-3.14.48-2.33,2.62-3.92,5.39-3.92s4.25,1.48,3.78,3.71c-.33,1.59-1.51,2.68-2.6,3.38,1.15.74,1.95,1.74,1.6,3.42"/>
      <path class="st2" d="M661.63,193.51c.34-.81.92-1.5,1.64-1.9.32.32,1.25,1.11,2.69,1.11,1.98,0,3.09-1.05,3.42-2.66.32-1.52-.41-2.46-2.34-2.46-1.29,0-2.31.52-3.24.52-.3,0-.53-.07-.63-.13l1.56-7.5h8.27c0,.39-.03.79-.11,1.18-.07.37-.19.74-.33,1.11h-6.04l-.6,2.92c.38-.15,1.11-.33,1.87-.33,3.4,0,4.7,1.7,4.1,4.6-.62,3.01-2.96,4.93-6.45,4.93-2.09,0-3.31-.85-3.8-1.4"/>
      <path class="st2" d="M673.09,193.51c.34-.81.92-1.5,1.63-1.9.32.32,1.25,1.11,2.69,1.11,1.98,0,3.09-1.05,3.43-2.66.32-1.52-.41-2.46-2.35-2.46-1.28,0-2.31.52-3.24.52-.31,0-.53-.07-.63-.13l1.55-7.5h8.28c0,.39-.03.79-.11,1.18-.07.37-.19.74-.34,1.11h-6.03l-.61,2.92c.38-.15,1.12-.33,1.88-.33,3.4,0,4.7,1.7,4.1,4.6-.62,3.01-2.97,4.93-6.45,4.93-2.09,0-3.31-.85-3.81-1.4"/>
      <path class="st2" d="M472.43,111.68h-39.71v.02h-3.92l2.19,7.01c.11.35.17.72.17,1.1,0,.19-.02.37-.04.55l-9.84,53.36h40.59c.78-1.64,1.3-3.39,1.61-5.12.29-1.55.4-3.19.2-4.74h-29.67l3.13-17.01h25.61c.71-1.74,1.18-3.29,1.49-4.93.31-1.64.41-3.28.33-4.93h-25.61l2.83-15.37h28.8c.69-1.64,1.17-3.19,1.49-4.93.3-1.65.45-3.48.35-5.03"/>
      <path class="st2" d="M309.46,126.56c-4.41,0-8.59.78-12.28,1.94-.29.09-.59.15-.92.15-.35,0-.68-.06-.99-.17h0s-7.67-2.28-7.67-2.28l-1.4,7.59-.02.02-7.36,39.92c1.77.38,3.58.48,5.32.48,1.83,0,3.78-.1,5.59-.48l6.38-34.6c2.36-1.26,6.36-2.52,10.61-2.52,7.05,0,10.52,3.19,8.98,11.6l-4.71,25.51c1.86.38,3.58.48,5.42.48s3.7-.1,5.6-.48l5.19-28.13c1.94-10.53-2.97-19.04-17.75-19.04"/>
      <path class="st2" d="M222.41,128.4c-1.07,5.8-4.86,9.08-12.98,9.08h-9.57l3.15-17.1c3.06-.29,5.97-.39,8.77-.39,8.02,0,11.61,3.1,10.63,8.41M219.74,155.94c-1.27,6.96-6.1,10.06-16.35,10.06-3.38,0-6.25-.2-8.71-.49l3.48-18.85h10.43c8.32,0,12.29,3.1,11.15,9.28M233.09,128.11c2.01-10.92-4-17.1-20.33-17.1-.13,0-.25,0-.37,0l-22.91-.09,2.51,7.47c.12.37.19.77.19,1.18,0,.27-.03.53-.08.78l-9.82,53.28c4.75.97,10.83,1.55,19.05,1.55,17.49,0,27.24-7.25,29.41-19.03,1.44-7.84-1.76-12.48-7.92-14.7,5.16-2.32,9.01-6.38,10.29-13.34"/>
    </g>
    <g>
      <path class="st3" d="M34.6,132.24l44.98-19.54v-14.46h.02c14.47-2.24,26.09-9.09,36.17-20.22v.02l44.99,36.74v-45.98H34.6v63.45Z"/>
      <path class="st2" d="M79.64,173.95h36.13v-95.93c-10.08,11.13-21.7,17.97-36.17,20.21h-.03v14.48l-44.97,19.54v14.11l45-19.73v-13.96l14.44-6.31v13.95l-14.4,6.3v13.77l14.43-6.31v13.8l-14.44,6.32v-13.78l-45.03,19.74v13.79l45.04-19.75v19.76Z"/>
      <polygon class="st5" points="79.63 140.38 79.64 140.38 79.64 126.6 79.6 126.62 79.6 126.62 34.6 146.35 34.6 160.15 79.63 140.41 79.63 140.38"/>
      <polygon class="st5" points="79.64 154.19 34.6 173.94 34.6 173.95 79.64 173.95 79.64 154.19"/>
      <polygon class="st5" points="79.64 126.6 94.05 120.3 94.05 106.4 79.6 112.72 79.6 126.62 79.64 126.6 79.64 126.6"/>
      <rect class="st5" x="79.6" y="126.61" width=".05" height="0"/>
      <polygon class="st5" points="79.63 140.41 79.63 154.19 94.07 147.87 94.07 134.07 79.64 140.38 79.64 140.4 79.63 140.41"/>
      <polygon class="st5" points="79.63 140.38 79.63 140.41 79.64 140.4 79.64 140.38 79.63 140.38"/>
      <polygon class="st5" points="115.81 173.95 160.77 173.95 160.77 114.77 115.77 78.04 115.81 173.95"/>
      <polygon class="st6" points="115.81 173.95 115.77 173.95 79.64 173.95 34.6 173.95 34.6 194.96 160.77 194.96 160.77 173.95 115.81 173.95"/>
    </g>
  </g>
  <rect class="st2" x="740.52" y="17.13" width="3.94" height="229.49" rx="1.97" ry="1.97"/>
</svg>