<svg xmlns="http://www.w3.org/2000/svg" width="350.499" height="71.603" viewBox="0 0 350.499 71.603"><defs><style>.a{fill:#fff;stroke:rgba(0,0,0,0);stroke-miterlimit:10;}</style></defs><g transform="translate(-472.783 -847.865)"><path class="a" d="M-11517.722-14654.163c.214.007.432.007.65,0,12.226-.229,21.9-16.631,21.608-36.633-.025-1.645-.11-3.264-.262-4.849-.012-.147-.026-.3-.026-.455a5.451,5.451,0,0,1,5.67-5.2,6.118,6.118,0,0,1,1.777.263c7.4,2.191,12.451,6.023,13.4,11a8.987,8.987,0,0,1,.148,2.247c-1.353,17.521-16.413,32.039-36.1,33.62q-1.742.142-3.465.14C-11515.46-14654.031-11516.6-14654.076-11517.722-14654.163Zm-2.539-.273c-17.681-2.38-31.9-15.26-33.528-31.81-1.774-18.08,12.093-34.164,31.625-37.66a8.694,8.694,0,0,1,1.349-.1c3.367-.044,6.563,1.974,9.272,5.478a7.832,7.832,0,0,1,1.638,4.786c0,3.847-2.868,7.1-6.808,8.148-1.271.341-2.532.706-3.811,1.12-11.527,3.736-20.7,9.783-25.723,16.231,5.182-4.859,13.944-9.058,24.551-11.42a16.591,16.591,0,0,1,3.589-.392c7.876,0,14.332,5.44,14.868,12.337.1,1.16.126,2.339.126,3.529a45.066,45.066,0,0,1-5.308,21.232c-2.819,5.3-6.59,8.529-10.776,8.581h-.078A8.766,8.766,0,0,1-11520.261-14654.437Zm283.813-12.252c0-6.054,5.677-9.117,14.983-9.08v-.4c0-1.578-.65-4.194-5.126-4.184a14.1,14.1,0,0,0-6.8,1.789l-1.264-3.933a19.059,19.059,0,0,1,9.158-2.129c8.108,0,10.422,4.849,10.422,10.112v8.637a33.912,33.912,0,0,0,.392,5.776h-5.766l-.439-2.676h-.151a9.431,9.431,0,0,1-7.443,3.219C-11233.609-14659.556-11236.448-14663.033-11236.448-14666.688Zm6.339-.657c0,2.347,1.618,3.451,3.641,3.451a5.186,5.186,0,0,0,5-3.314,4.448,4.448,0,0,0,.181-1.323v-3.315l-.379,0C-11226.036-14671.85-11230.109-14670.895-11230.109-14667.346Zm-47.133,7.79c-7.129,0-12.643-4.671-12.643-12.354,0-7.868,5.462-12.714,13.071-12.714,7.521,0,12.552,5.026,12.552,12.3,0,8.814-6.516,12.769-12.929,12.769Zm-6.127-12.51c0,4.612,2.428,8.1,6.228,8.1h.059c3.659,0,6.2-3.359,6.2-8.183,0-3.77-1.756-8.075-6.165-8.075C-11281.532-14680.219-11283.369-14676.068-11283.369-14672.065Zm-62.374,5.377c0-6.054,5.681-9.117,14.986-9.08v-.4c0-1.578-.657-4.194-5.13-4.184a14.06,14.06,0,0,0-6.792,1.789l-1.268-3.933a19.043,19.043,0,0,1,9.157-2.129c8.105,0,10.419,4.849,10.419,10.112v8.637a34.319,34.319,0,0,0,.392,5.776h-5.758l-.443-2.676h-.151a9.439,9.439,0,0,1-7.447,3.219C-11342.908-14659.556-11345.743-14663.033-11345.743-14666.688Zm6.339-.657c0,2.347,1.618,3.451,3.637,3.451a5.188,5.188,0,0,0,5-3.314,4.568,4.568,0,0,0,.174-1.323v-3.315l-.38,0C-11335.334-14671.85-11339.4-14670.895-11339.4-14667.346Zm17.492-4.5c0-7.181,5.162-12.762,14.051-12.762a17.309,17.309,0,0,1,6.168,1.095l-1.131,4.561a11.225,11.225,0,0,0-4.83-.939,7.336,7.336,0,0,0-7.739,7.776c0,4.919,3.408,7.742,7.758,7.742a13.156,13.156,0,0,0,5.019-.945l.857,4.5a18.911,18.911,0,0,1-7.129,1.238C-11316.812-14659.581-11321.912-14664.4-11321.912-14671.848Zm-91.541.107c0-6.623,4.228-12.884,12.354-12.884,8.213,0,10.888,6.409,10.888,11.664a12.1,12.1,0,0,1-.225,2.547h-16.9c.17,4.346,3.715,6.245,7.8,6.245a20.08,20.08,0,0,0,6.975-1.112l.945,4.18a24.062,24.062,0,0,1-8.829,1.52C-11408.648-14659.581-11413.453-14664.394-11413.453-14671.74Zm6.109-2.9h11.12c.029-2.221-.994-5.843-5.273-5.843C-11405.426-14680.484-11407.06-14677.1-11407.344-14674.642Zm-17.071,13.087c-1.375-1.382-2-3.589-2-6.73v-11.283h-3.607v-4.512h3.607v-4.469l6.261-1.7v6.165h6.075v4.512h-6.075v10.585c0,2.938.824,4.432,3.271,4.432a8.929,8.929,0,0,0,2.479-.267l.126,4.616a15.087,15.087,0,0,1-4.653.621A7.641,7.641,0,0,1-11424.415-14661.555Zm213.564,1.456v-34.977h6.394v34.977Zm-176.584,0v-16.272c0-3.216-.074-5.573-.207-7.709h5.528l.236,4.557h.178a7.5,7.5,0,0,1,6.922-5.1,6.294,6.294,0,0,1,1.5.133v5.707a9.558,9.558,0,0,0-1.874-.167,5.552,5.552,0,0,0-5.725,4.587,9.317,9.317,0,0,0-.166,1.825v12.44Zm-77.319,0v-33.206h6.394v33.206Zm218.357,0v-13.526c0-3.444-1.331-6.064-4.823-6.064a5.273,5.273,0,0,0-4.971,3.559,5.643,5.643,0,0,0-.292,1.922v14.11h-6.394v-16.849c0-2.772-.089-5.056-.207-7.129h5.58l.314,3.6h.151a9.305,9.305,0,0,1,8.05-4.144c4.409,0,8.98,2.694,8.98,10.278v14.243Zm-52.68,0v-23.978h6.394v23.978Zm-55.289,0v-13.526c0-3.444-1.33-6.064-4.823-6.064a5.281,5.281,0,0,0-4.971,3.559,5.74,5.74,0,0,0-.292,1.922v14.11h-6.39v-16.849c0-2.772-.1-5.056-.211-7.129h5.585l.313,3.6h.151a9.3,9.3,0,0,1,8.05-4.144c4.4,0,8.98,2.694,8.98,10.278v14.243Zm-83.665,0v-13.526c0-3.444-1.326-6.064-4.819-6.064a5.268,5.268,0,0,0-4.967,3.559,5.638,5.638,0,0,0-.3,1.922v14.11h-6.4v-16.849c0-2.772-.089-5.056-.2-7.129h5.584l.311,3.6h.151a9.314,9.314,0,0,1,8.054-4.144c4.4,0,8.98,2.694,8.98,10.278v14.243Zm142.08-27.688a3.453,3.453,0,0,1-3.691-3.456,3.487,3.487,0,0,1,3.766-3.451,3.467,3.467,0,0,1,3.755,3.451,3.473,3.473,0,0,1-3.777,3.456Zm-189.844-17.208a32.385,32.385,0,0,0-9.705-2.265,5.757,5.757,0,0,1-4.742-3.071c-4.161-8.686-10.666-14.222-17.891-14.081-.188,0-.352.007-.54.022.314-.034.606-.063.917-.089,20.651-1.66,39,11.53,42.509,29.925C-11476.821-14699.4-11480.69-14702.873-11485.794-14705Zm20.97,7.588v-20.7a35.549,35.549,0,0,1,5.909-.451c2.979,0,4.838.366,6.35,1.342a4.434,4.434,0,0,1,2.287,3.962c0,1.933-1.274,3.7-3.687,4.535v.081a5.4,5.4,0,0,1,4.49,5.215,5.44,5.44,0,0,1-2.122,4.346c-1.581,1.3-4.18,1.948-8.245,1.948A41.026,41.026,0,0,1-11464.824-14697.411Zm4.021-2.724a13.4,13.4,0,0,0,2.144.11c2.591,0,4.923-.924,4.923-3.525,0-2.446-2.272-3.448-5.056-3.452h-2.011Zm0-15.411v5.758h2.077c2.806,0,4.372-1.261,4.372-3.046,0-1.974-1.582-2.883-4.132-2.883A11.715,11.715,0,0,0-11460.8-14715.546Zm66.846,18.105c-4.523,0-8.02-2.964-8.02-7.839,0-4.993,3.463-8.064,8.289-8.064,4.771,0,7.957,3.189,7.957,7.8,0,5.588-4.132,8.1-8.2,8.1Zm-3.888-7.938c0,2.927,1.541,5.145,3.954,5.145h.029c2.321,0,3.937-2.133,3.937-5.193,0-2.391-1.112-5.122-3.91-5.122C-11396.678-14710.55-11397.846-14707.911-11397.846-14705.379Zm-50.48,3.411c0-3.84,3.6-5.78,9.5-5.758v-.252c0-1-.417-2.664-3.26-2.649a8.891,8.891,0,0,0-4.3,1.131l-.806-2.5a12.152,12.152,0,0,1,5.813-1.349c5.138,0,6.6,3.075,6.6,6.408v5.481a21.523,21.523,0,0,0,.252,3.662h-3.651l-.277-1.7h-.1a5.993,5.993,0,0,1-4.724,2.044C-11446.526-14697.44-11448.326-14699.65-11448.326-14701.968Zm4.017-.418a2.09,2.09,0,0,0,2.311,2.188,3.293,3.293,0,0,0,3.175-2.1,2.73,2.73,0,0,0,.11-.835v-2.1h-.23C-11441.716-14705.24-11444.31-14704.641-11444.31-14702.386Zm29.061-2.854c0-4.557,3.278-8.094,8.914-8.094a10.984,10.984,0,0,1,3.91.7l-.717,2.894a7.019,7.019,0,0,0-3.068-.6,4.652,4.652,0,0,0-4.9,4.931,4.648,4.648,0,0,0,4.922,4.911,8.231,8.231,0,0,0,3.183-.6l.539,2.86a12.057,12.057,0,0,1-4.523.78C-11412.012-14697.463-11415.249-14700.52-11415.249-14705.239Zm-6.076,7.455v-8.578c0-2.187-.847-3.848-3.057-3.848a3.336,3.336,0,0,0-3.152,2.255,3.561,3.561,0,0,0-.188,1.22v8.951h-4.051v-10.685c0-1.76-.062-3.2-.133-4.523h3.537l.2,2.28h.093a5.9,5.9,0,0,1,5.107-2.628c2.8,0,5.7,1.707,5.7,6.522v9.033Z" transform="translate(12027.239 15572.999)"/></g></svg>