<svg width="25" height="31" viewBox="0 0 25 31" fill="none" xmlns="http://www.w3.org/2000/svg">
<path d="M0.00413286 27.4857C0.0527865 28.9323 1.12317 30.1652 2.55034 30.3954C2.74495 30.4283 2.93957 30.4447 3.13418 30.4283C3.94507 30.3954 4.6911 30.0502 5.22629 29.4584C5.77769 28.8666 6.0534 28.0775 6.02096 27.272C6.02096 25.0692 7.26974 23.5733 8.97261 21.8801C10.7566 20.5485 13.3028 18.9211 16.8869 16.8991C21.3468 14.499 24.2498 11.6551 24.8823 9.33724L24.8986 9.27148C24.9797 8.97558 25.0121 8.67968 24.9959 8.38378C24.9472 6.93717 23.8768 5.70425 22.4497 5.47411C22.255 5.44123 22.0604 5.42479 21.8658 5.44123C21.0549 5.47411 20.3089 5.81933 19.7737 6.41112C19.2223 7.00292 18.9466 7.79199 18.979 8.59749C18.979 10.9154 17.6005 12.4606 15.7355 14.2524C11.7621 17.3923 8.09685 18.9704 8.09685 18.9704C3.63694 21.3705 0.733937 24.2144 0.10144 26.5323L0.0852222 26.598C0.0203507 26.9103 -0.012085 27.2062 0.00413286 27.4857Z" fill="#EF3942"/>
<path d="M18.8598 17.5297C18.8598 17.5297 21.6858 18.406 20.7956 23.0521C20.7532 23.3001 20.725 23.5481 20.7532 23.8127C20.8521 25.185 21.8836 26.1936 23.0564 26.0779C24.2292 25.9621 25.0912 24.7551 24.9923 23.3828C24.7944 20.1586 19.5946 16.2069 18.888 16.3062C18.888 16.3062 18.4783 16.3227 18.4783 16.9345C18.4783 17.4305 18.8598 17.5297 18.8598 17.5297Z" fill="#0C9647"/>
<path d="M16.9747 19.686C16.9747 19.686 18.9855 20.1844 18.3562 22.7903C18.3562 22.7903 17.6961 25.2539 13.4444 25.8947C8.64014 26.6352 8.71689 24.9976 8.71689 24.9976C8.67084 24.1859 8.34851 23.2033 13.1221 20.5262C13.1221 20.5262 15.5319 19.1591 16.9747 19.686Z" fill="#FDD700"/>
<path d="M4.36489 4.66374C4.68941 8.88902 11.1438 13.9425 15.0021 15.903C16.0478 16.4438 17.3458 16.3255 17.7245 16.1903C19.4913 15.4298 17.5983 14.7875 17.5983 14.7875C17.5983 14.7875 11.5224 13.2664 13.4155 5.25528C13.5237 4.83275 13.5597 4.39332 13.5237 3.93699C13.3073 1.57083 11.0897 -0.186886 8.56567 0.0159278C6.02357 0.218741 4.14854 2.29758 4.36489 4.66374Z" fill="#2C70B8"/>
</svg>
