<svg width="200" height="62" viewBox="0 0 200 62" fill="none" xmlns="http://www.w3.org/2000/svg">
<path fill-rule="evenodd" clip-rule="evenodd" d="M52.724 27.2185C50.9885 27.2185 50.4882 29.1331 49.8767 32.0192C49.3332 34.5811 48.87 37.025 50.6673 37.025C52.0816 37.025 52.7363 35.3173 53.3972 32.2255C53.9962 29.3974 54.3421 27.2185 52.724 27.2185ZM52.2299 38.1447H52.1681C51.5814 39.2348 50.34 40.4997 48.2215 40.4997C45.0099 40.4997 43.7932 38.2034 45.0532 32.2551C46.1093 27.3062 47.573 23.7432 51.4887 23.7432C52.8166 23.7432 54.163 24.1854 54.5953 25.8925H54.6509L56.1085 19.0616H60.8765L56.4049 40.0884H51.8161L52.2299 38.1447Z" fill="#006340"/>
<path fill-rule="evenodd" clip-rule="evenodd" d="M71.4254 40.0884H66.8304L67.2318 38.2028H67.1762C66.1942 39.6171 64.6255 40.4997 62.8591 40.4997C60.1478 40.4997 58.9928 39.1447 59.6413 36.0825L62.1797 24.1558H66.9477L64.644 35.0233C64.397 36.1709 64.7552 36.8484 65.6384 36.8484C66.5524 36.8484 67.4974 36.1431 67.8247 34.5811L70.042 24.1558H74.8161L71.4254 40.0884Z" fill="#006340"/>
<path fill-rule="evenodd" clip-rule="evenodd" d="M80.8502 37.025C82.6475 37.025 83.228 34.5811 83.7715 32.0198C84.383 29.1331 84.7041 27.2185 82.9624 27.2185C81.3505 27.2185 80.7699 29.3974 80.1646 32.2255C79.51 35.3173 79.442 37.025 80.8502 37.025ZM78.2809 19.0616H83.0551L81.5975 25.8925H81.6593C82.8142 24.1854 84.3521 23.7432 85.6799 23.7432C89.5956 23.7432 89.5462 27.3062 88.4901 32.2551C87.2302 38.2034 85.0315 40.4997 81.8198 40.4997C79.7014 40.4997 78.9973 39.2348 78.88 38.1447H78.8182L78.4044 40.0884H73.8156L78.2809 19.0616Z" fill="#006340"/>
<path fill-rule="evenodd" clip-rule="evenodd" d="M21.9915 24.1292H26.5865L26.111 26.3663H26.1727C27.093 24.9531 28.5629 23.7161 30.564 23.7161C30.7987 23.7161 31.0334 23.7161 31.3175 23.7741L30.3663 28.2543C29.9155 28.1641 29.5387 28.1345 29.0693 28.1345C27.1486 28.1345 25.7466 28.93 25.3019 31.0225L23.3749 40.0662H18.6069L21.9915 24.1292Z" fill="#006340"/>
<path fill-rule="evenodd" clip-rule="evenodd" d="M38.1668 26.8325C36.7525 26.8325 36.0484 28.2129 35.2269 32.065C34.4055 35.9442 34.5229 37.3252 35.931 37.3252C37.4071 37.3252 37.9815 36.0041 38.8091 32.0952C39.6491 28.1542 39.6305 26.8325 38.1668 26.8325ZM30.459 32.1212C31.4657 27.3618 33.3 23.7161 38.7968 23.7161C44.6209 23.7161 44.5962 27.2735 43.5833 32.0366C42.5704 36.7972 40.7423 40.4411 35.2455 40.4411C29.4214 40.4411 29.4461 36.8855 30.459 32.1212Z" fill="#006340"/>
<path fill-rule="evenodd" clip-rule="evenodd" d="M10.7447 28.2042H12.0973C14.0736 28.2042 14.8024 26.969 15.1051 25.5565C15.4509 23.9359 15.1853 22.6988 13.1781 22.6988H11.9182L10.7447 28.2042ZM7.74307 19.0499H15.3953C20.608 19.0499 20.8056 22.8192 20.2498 25.4367C19.4531 29.2041 17.0938 31.8549 12.1467 31.8549H9.96649L8.22481 40.0661H3.27771L7.74307 19.0499Z" fill="#006340"/>
<path fill-rule="evenodd" clip-rule="evenodd" d="M115.22 23.7062C113.448 23.7062 111.873 24.5875 110.897 26.0056H110.835L111.237 24.1181H106.636L103.245 40.0699H108.019L110.242 29.6322C110.576 28.069 111.521 27.36 112.435 27.36C113.318 27.36 113.676 28.0406 113.436 29.1912L111.119 40.0699H115.9L118.438 28.1283C119.087 25.0612 117.932 23.7062 115.22 23.7062Z" fill="#006340"/>
<path fill-rule="evenodd" clip-rule="evenodd" d="M97.4085 35.0289C97.0688 36.6211 96.0312 37.2097 95.0307 37.2097C94.1475 37.2097 93.8078 36.4432 94.0795 35.1765C94.2648 34.2958 94.6107 33.7942 95.1851 33.4101C95.71 33.0581 96.3647 33.0296 98.0323 32.236C97.8964 32.8802 97.6926 33.709 97.4085 35.0289ZM98.6005 23.7531C96.6241 23.7531 95.2098 24.0168 93.9313 24.7826C92.6467 25.5509 91.7202 26.8732 91.2262 29.0534H95.4692C95.7903 27.6687 96.34 26.8732 97.6679 26.8732C98.7302 26.8732 99.039 27.4933 98.8352 28.4636C98.5758 29.6704 98.2608 29.9076 96.7353 30.2893C95.3333 30.6413 93.5052 30.9359 92.1896 31.5856C90.8741 32.236 89.7809 33.7942 89.3857 35.6483C88.6507 39.0946 89.9106 40.5108 92.5911 40.5108C94.1845 40.5108 95.8583 39.6838 96.8032 38.2682H96.865C96.7662 38.8908 96.6859 39.5331 96.7476 40.0976H101.337C100.929 39.3905 101.256 37.8594 101.509 36.6526L103.251 28.4636C103.968 25.1087 102.516 23.7531 98.6005 23.7531Z" fill="#006340"/>
<path fill-rule="evenodd" clip-rule="evenodd" d="M141.241 26.8325C139.826 26.8325 139.122 28.2129 138.307 32.065C137.479 35.9442 137.597 37.3252 139.005 37.3252C140.481 37.3252 141.055 36.0041 141.883 32.0952C142.723 28.1542 142.711 26.8325 141.241 26.8325ZM133.533 32.1212C134.54 27.3618 136.374 23.7161 141.871 23.7161C147.695 23.7161 147.67 27.2735 146.657 32.0366C145.644 36.7972 143.81 40.4411 138.319 40.4411C132.495 40.4411 132.52 36.8855 133.533 32.1212Z" fill="#006340"/>
<path fill-rule="evenodd" clip-rule="evenodd" d="M128.221 30.146C128.715 27.8213 128.394 26.8492 127.128 26.8492C125.541 26.8492 124.911 28.8509 124.219 32.1187C123.453 35.7095 123.311 37.3561 124.898 37.3561C126.313 37.3561 126.838 36.3852 127.492 33.5892H131.908C130.834 38.5048 128.474 40.4775 124.145 40.4775C118.142 40.4775 118.568 36.2691 119.575 31.5307C120.52 27.0561 122.527 23.729 127.709 23.729C132.711 23.729 133.446 26.3495 132.637 30.146H128.221Z" fill="#006340"/>
<path fill-rule="evenodd" clip-rule="evenodd" d="M67.1206 51.0541C66.9909 51.66 66.4474 51.9058 66.0645 51.9058C65.6816 51.9058 65.6013 51.5556 65.6939 51.1362C65.7989 50.6427 66.083 50.3667 66.6821 50.2462C66.8674 50.203 67.1268 50.1104 67.3491 49.964L67.1206 51.0541ZM67.3182 47.0612C66.2498 47.0612 65.2925 47.4929 65.0207 48.764L64.9898 48.898H66.2621L66.293 48.7454C66.3856 48.3112 66.6759 48.0284 67.1021 48.0284C67.5776 48.0284 67.7135 48.2822 67.6209 48.7034C67.5406 49.0728 67.3615 49.237 66.9168 49.3476L66.0707 49.5662C65.0331 49.8312 64.5266 50.2549 64.3043 51.2919C64.1499 52.0287 64.3228 52.8723 65.3048 52.8723C65.9842 52.8723 66.4165 52.7303 66.8674 52.1534H66.8859C66.8859 52.3362 66.8859 52.553 66.9353 52.7303H68.2941C68.2138 52.4091 68.2385 52.1732 68.3497 51.66L68.9611 48.7535C69.1773 47.7603 69.0043 47.0612 67.3182 47.0612ZM64.1993 49.192C64.4772 47.8937 63.9708 47.0612 62.6738 47.0612C61.3706 47.0612 60.296 47.6961 59.8142 49.964C59.3386 52.1849 59.9007 52.8723 61.3088 52.8723C62.8158 52.8723 63.5878 52.0602 63.8905 50.61H62.5441C62.3526 51.508 62.05 51.9058 61.5806 51.9058C60.9383 51.9058 60.9383 51.3394 61.2286 49.9782C61.5003 48.7034 61.7473 48.0858 62.4391 48.0858C62.9764 48.0858 62.9579 48.6608 62.8467 49.192H64.1993ZM57.0164 52.7303H58.4369L59.6104 47.2039H58.1961L57.0164 52.7303ZM60.0118 45.3146H58.5975L58.3381 46.5257H59.7524L60.0118 45.3146ZM57.6587 47.0803C57.5723 47.0698 57.4858 47.0612 57.4055 47.0612C56.8188 47.0612 56.3494 47.4095 55.9418 47.9394H55.9171L56.0776 47.2039H54.7251L53.5516 52.7303H54.9659L55.6762 49.41C55.8306 48.6719 56.4359 48.4138 56.9299 48.4138C57.072 48.4138 57.2264 48.4267 57.3685 48.4354L57.6587 47.0803ZM52.1743 49.3383H50.7291L50.7723 49.1228C50.8835 48.6108 51.1676 48.0284 51.7358 48.0284C52.3225 48.0284 52.3225 48.4978 52.1743 49.3383ZM51.9952 47.0612C50.0806 47.0612 49.5062 48.4354 49.185 49.9109C48.8948 51.2919 48.6415 52.8723 50.6982 52.8723C52.0261 52.8723 52.7981 52.1534 53.1254 50.8663H51.8531C51.6246 51.5519 51.3529 51.9058 50.8773 51.9058C50.3523 51.9058 50.3153 51.2684 50.4573 50.623L50.55 50.1801H53.354L53.4219 49.8639C53.7801 48.1655 53.6504 47.0612 51.9952 47.0612ZM47.6781 47.0612C47.011 47.0612 46.4305 47.3589 46.097 47.9394H46.0723C46.0414 47.378 45.6338 47.0612 44.9914 47.0612C44.3924 47.0612 43.9044 47.2669 43.4412 47.769H43.4227L43.5462 47.2039H42.1875L41.014 52.7303H42.4283L43.2004 49.0925C43.3362 48.4539 43.6883 48.1439 44.1453 48.1439C44.5468 48.1439 44.6394 48.4076 44.5468 48.8696L43.7253 52.7303H45.1458L45.9117 49.0925C46.0476 48.4539 46.3996 48.1439 46.8505 48.1439C47.2519 48.1439 47.3507 48.4076 47.2581 48.8696L46.4305 52.7303H47.851L48.7033 48.7121C48.9257 47.6467 48.6168 47.0612 47.6781 47.0612ZM39.4206 49.964C39.1303 51.3394 38.8276 51.9058 38.2533 51.9058C37.5554 51.9058 37.6665 51.0924 37.9012 49.964C38.1421 48.835 38.3768 48.0284 39.0747 48.0284C39.6491 48.0284 39.7108 48.5923 39.4206 49.964ZM39.2785 47.0612C37.6603 47.0612 36.8883 48.0741 36.4869 49.964C36.0792 51.8891 36.3325 52.902 38.0433 52.8723C39.6676 52.8723 40.4396 51.8564 40.8411 49.964C41.2487 48.0463 40.9955 47.0297 39.2785 47.0612ZM36.771 47.0803C36.6907 47.0698 36.6042 47.0612 36.5178 47.0612C35.931 47.0612 35.4555 47.4095 35.0602 47.9394H35.0355L35.1961 47.2039H33.8373L32.6638 52.7303H34.0782L34.7884 49.41C34.9428 48.6719 35.5543 48.4138 36.0422 48.4138C36.1904 48.4138 36.3386 48.4267 36.4807 48.4354L36.771 47.0803ZM31.6201 47.7048C31.4657 48.4521 30.9901 48.8041 30.4034 48.8041H29.7487L30.2181 46.5764H30.8357C31.5768 46.5764 31.7745 46.9877 31.6201 47.7048ZM31.6509 45.3955H29.0631L27.5006 52.7303H28.9828L29.6066 49.8009H30.3972C31.793 49.8009 32.8738 49.1123 33.195 47.5954C33.4297 46.4948 33.1518 45.3955 31.6509 45.3955ZM23.2823 49.964C22.992 51.3394 22.6832 51.9058 22.1088 51.9058C21.4109 51.9058 21.5221 51.0924 21.7629 49.964C21.9976 48.835 22.2385 48.0284 22.9364 48.0284C23.5108 48.0284 23.5725 48.5923 23.2823 49.964ZM23.1402 47.0612C21.5159 47.0612 20.7439 48.0741 20.3486 49.964C19.9348 51.8891 20.1942 52.902 21.905 52.8723C23.5293 52.8723 24.3013 51.8564 24.6966 49.964C25.1104 48.0463 24.851 47.0297 23.1402 47.0612ZM18.2981 49.964C18.0449 51.1696 17.7917 51.7829 17.174 51.7829C16.5503 51.7829 16.5564 51.1696 16.8158 49.964C17.069 48.764 17.3223 48.1439 17.9522 48.1439C18.5637 48.1439 18.5575 48.764 18.2981 49.964ZM18.6378 47.0612C18.0881 47.0612 17.6496 47.2724 17.2358 47.7881H17.2111L17.3346 47.2039H15.982L14.4257 54.5343H15.84L16.3341 52.2109H16.3588C16.5564 52.6531 16.8714 52.8723 17.4026 52.8723C18.5698 52.8723 19.2801 52.0188 19.7186 49.964C20.1509 47.9123 19.7989 47.0612 18.6378 47.0612ZM13.6228 47.2039L12.8446 50.8663C12.7087 51.4846 12.3813 51.7829 11.8934 51.7829C11.4796 51.7829 11.3376 51.5698 11.4549 51.0115L12.264 47.2039H10.8497L9.97882 51.2999C9.75031 52.3881 10.1641 52.8723 11.0473 52.8723C11.6464 52.8723 12.2146 52.6253 12.6284 52.0806H12.6469L12.5049 52.7303H13.8636L15.0371 47.2039H13.6228ZM10.2629 47.0803C10.1826 47.0698 10.09 47.0612 10.0097 47.0612C9.42297 47.0612 8.9474 47.4095 8.54595 47.9394H8.52742L8.68183 47.2039H7.32925L6.15578 52.7303H7.57012L8.28038 49.41C8.43478 48.6719 9.04005 48.4138 9.53414 48.4138C9.68237 48.4138 9.83059 48.4267 9.97264 48.4354L10.2629 47.0803ZM3.55562 49.8639H4.53145L4.37705 50.61C4.20412 51.4049 3.56179 51.7829 3.20975 51.7829C2.35744 51.7829 2.43156 50.6724 2.8083 48.9079C3.19123 47.0803 3.63591 46.3417 4.35852 46.3417C4.95143 46.3417 5.05025 47.0297 4.93908 47.5713H6.35342C6.67458 46.0854 6.19284 45.2522 4.56851 45.2522C2.6786 45.2522 1.83247 46.5158 1.31367 48.982C0.776349 51.5154 0.844287 52.8723 2.66008 52.8723C3.35181 52.8723 3.90766 52.6253 4.37705 52.0491H4.39558L4.25352 52.7303H5.34053L6.18048 48.7745H3.79031L3.55562 49.8639Z" fill="#006340"/>
<path fill-rule="evenodd" clip-rule="evenodd" d="M183.251 17.5818C175.37 25.3187 168.335 33.8591 162.005 42.9102L162.011 42.9145C173.283 33.1222 185.542 24.4738 198.728 17.462V17.4459C193.571 17.2477 188.408 17.2878 183.251 17.5818Z" fill="#62B447"/>
<path fill-rule="evenodd" clip-rule="evenodd" d="M190.008 46.3813L190.014 46.3751C188.334 40.1267 186.672 33.8715 185.03 27.6057C180.96 30.2337 176.988 32.987 173.097 35.875C178.792 39.2873 184.418 42.8003 190.008 46.3813ZM157.385 48.0155H157.397C164.234 36.7712 172.158 26.2013 181.367 16.7839C180.255 13.9095 177.97 8.16321 177.97 8.16321C174.851 11.6842 172.097 15.4937 169.552 19.4483C164.642 20.5736 159.8 21.9824 155.112 23.8309C155.112 23.8309 161.066 27.8719 163.987 29.957C161.511 35.6774 157.62 47.3176 157.385 48.0155Z" fill="#006340"/>
<path fill-rule="evenodd" clip-rule="evenodd" d="M52.724 27.2185C50.9885 27.2185 50.4882 29.1331 49.8767 32.0192C49.3332 34.5811 48.87 37.025 50.6673 37.025C52.0816 37.025 52.7363 35.3173 53.3972 32.2255C53.9962 29.3974 54.3421 27.2185 52.724 27.2185ZM52.2299 38.1447H52.1681C51.5814 39.2348 50.34 40.4997 48.2215 40.4997C45.0099 40.4997 43.7932 38.2034 45.0532 32.2551C46.1093 27.3062 47.573 23.7432 51.4887 23.7432C52.8166 23.7432 54.163 24.1854 54.5953 25.8925H54.6509L56.1085 19.0616H60.8765L56.4049 40.0884H51.8161L52.2299 38.1447Z" fill="#006340"/>
<path fill-rule="evenodd" clip-rule="evenodd" d="M71.4254 40.0884H66.8304L67.2318 38.2028H67.1762C66.1942 39.6171 64.6255 40.4997 62.8591 40.4997C60.1478 40.4997 58.9928 39.1447 59.6413 36.0825L62.1797 24.1558H66.9477L64.644 35.0233C64.397 36.1709 64.7552 36.8484 65.6384 36.8484C66.5524 36.8484 67.4974 36.1431 67.8247 34.5811L70.042 24.1558H74.8161L71.4254 40.0884Z" fill="#006340"/>
<path fill-rule="evenodd" clip-rule="evenodd" d="M80.8502 37.025C82.6475 37.025 83.228 34.5811 83.7715 32.0198C84.383 29.1331 84.7041 27.2185 82.9624 27.2185C81.3505 27.2185 80.7699 29.3974 80.1646 32.2255C79.51 35.3173 79.442 37.025 80.8502 37.025ZM78.2809 19.0616H83.0551L81.5975 25.8925H81.6593C82.8142 24.1854 84.3521 23.7432 85.6799 23.7432C89.5956 23.7432 89.5462 27.3062 88.4901 32.2551C87.2302 38.2034 85.0315 40.4997 81.8198 40.4997C79.7014 40.4997 78.9973 39.2348 78.88 38.1447H78.8182L78.4044 40.0884H73.8156L78.2809 19.0616Z" fill="#006340"/>
<path fill-rule="evenodd" clip-rule="evenodd" d="M21.9915 24.1292H26.5865L26.111 26.3663H26.1727C27.093 24.9531 28.5629 23.7161 30.564 23.7161C30.7987 23.7161 31.0334 23.7161 31.3175 23.7741L30.3663 28.2543C29.9155 28.1641 29.5387 28.1345 29.0693 28.1345C27.1486 28.1345 25.7466 28.93 25.3019 31.0225L23.3749 40.0662H18.6069L21.9915 24.1292Z" fill="#006340"/>
<path fill-rule="evenodd" clip-rule="evenodd" d="M38.1668 26.8325C36.7525 26.8325 36.0484 28.2129 35.2269 32.065C34.4055 35.9442 34.5229 37.3252 35.931 37.3252C37.4071 37.3252 37.9815 36.0041 38.8091 32.0952C39.6491 28.1542 39.6305 26.8325 38.1668 26.8325ZM30.459 32.1212C31.4657 27.3618 33.3 23.7161 38.7968 23.7161C44.6209 23.7161 44.5962 27.2735 43.5833 32.0366C42.5704 36.7972 40.7423 40.4411 35.2455 40.4411C29.4214 40.4411 29.4461 36.8855 30.459 32.1212Z" fill="#006340"/>
<path fill-rule="evenodd" clip-rule="evenodd" d="M10.7447 28.2042H12.0973C14.0736 28.2042 14.8024 26.969 15.1051 25.5565C15.4509 23.9359 15.1853 22.6988 13.1781 22.6988H11.9182L10.7447 28.2042ZM7.74307 19.0499H15.3953C20.608 19.0499 20.8056 22.8192 20.2498 25.4367C19.4531 29.2041 17.0938 31.8549 12.1467 31.8549H9.96649L8.22481 40.0661H3.27771L7.74307 19.0499Z" fill="#006340"/>
<path fill-rule="evenodd" clip-rule="evenodd" d="M115.22 23.7062C113.448 23.7062 111.873 24.5875 110.897 26.0056H110.835L111.237 24.1181H106.636L103.245 40.0699H108.019L110.242 29.6322C110.576 28.069 111.521 27.36 112.435 27.36C113.318 27.36 113.676 28.0406 113.436 29.1912L111.119 40.0699H115.9L118.438 28.1283C119.087 25.0612 117.932 23.7062 115.22 23.7062Z" fill="#006340"/>
<path fill-rule="evenodd" clip-rule="evenodd" d="M97.4085 35.0289C97.0688 36.6211 96.0312 37.2097 95.0307 37.2097C94.1475 37.2097 93.8078 36.4432 94.0795 35.1765C94.2648 34.2958 94.6107 33.7942 95.1851 33.4101C95.71 33.0581 96.3647 33.0296 98.0323 32.236C97.8964 32.8802 97.6926 33.709 97.4085 35.0289ZM98.6005 23.7531C96.6241 23.7531 95.2098 24.0168 93.9313 24.7826C92.6467 25.5509 91.7202 26.8732 91.2262 29.0534H95.4692C95.7903 27.6687 96.34 26.8732 97.6679 26.8732C98.7302 26.8732 99.039 27.4933 98.8352 28.4636C98.5758 29.6704 98.2608 29.9076 96.7353 30.2893C95.3333 30.6413 93.5052 30.9359 92.1896 31.5856C90.8741 32.236 89.7809 33.7942 89.3857 35.6483C88.6507 39.0946 89.9106 40.5108 92.5911 40.5108C94.1845 40.5108 95.8583 39.6838 96.8032 38.2682H96.865C96.7662 38.8908 96.6859 39.5331 96.7476 40.0976H101.337C100.929 39.3905 101.256 37.8594 101.509 36.6526L103.251 28.4636C103.968 25.1087 102.516 23.7531 98.6005 23.7531Z" fill="#006340"/>
<path fill-rule="evenodd" clip-rule="evenodd" d="M141.241 26.8325C139.826 26.8325 139.122 28.2129 138.307 32.065C137.479 35.9442 137.597 37.3252 139.005 37.3252C140.481 37.3252 141.055 36.0041 141.883 32.0952C142.723 28.1542 142.711 26.8325 141.241 26.8325ZM133.533 32.1212C134.54 27.3618 136.374 23.7161 141.871 23.7161C147.695 23.7161 147.67 27.2735 146.657 32.0366C145.644 36.7972 143.81 40.4411 138.319 40.4411C132.495 40.4411 132.52 36.8855 133.533 32.1212Z" fill="#006340"/>
<path fill-rule="evenodd" clip-rule="evenodd" d="M128.221 30.146C128.715 27.8213 128.394 26.8492 127.128 26.8492C125.541 26.8492 124.911 28.8509 124.219 32.1187C123.453 35.7095 123.311 37.3561 124.898 37.3561C126.313 37.3561 126.838 36.3852 127.492 33.5892H131.908C130.834 38.5048 128.474 40.4775 124.145 40.4775C118.142 40.4775 118.568 36.2691 119.575 31.5307C120.52 27.0561 122.527 23.729 127.709 23.729C132.711 23.729 133.446 26.3495 132.637 30.146H128.221Z" fill="#006340"/>
<path fill-rule="evenodd" clip-rule="evenodd" d="M67.1206 51.0541C66.9909 51.66 66.4474 51.9058 66.0645 51.9058C65.6816 51.9058 65.6013 51.5556 65.6939 51.1362C65.7989 50.6427 66.083 50.3667 66.6821 50.2462C66.8674 50.203 67.1268 50.1104 67.3491 49.964L67.1206 51.0541ZM67.3182 47.0612C66.2498 47.0612 65.2925 47.4929 65.0207 48.764L64.9898 48.898H66.2621L66.293 48.7454C66.3856 48.3112 66.6759 48.0284 67.1021 48.0284C67.5776 48.0284 67.7135 48.2822 67.6209 48.7034C67.5406 49.0728 67.3615 49.237 66.9168 49.3476L66.0707 49.5662C65.0331 49.8312 64.5266 50.2549 64.3043 51.2919C64.1499 52.0287 64.3228 52.8723 65.3048 52.8723C65.9842 52.8723 66.4165 52.7303 66.8674 52.1534H66.8859C66.8859 52.3362 66.8859 52.553 66.9353 52.7303H68.2941C68.2138 52.4091 68.2385 52.1732 68.3497 51.66L68.9611 48.7535C69.1773 47.7603 69.0043 47.0612 67.3182 47.0612ZM64.1993 49.192C64.4772 47.8937 63.9708 47.0612 62.6738 47.0612C61.3706 47.0612 60.296 47.6961 59.8142 49.964C59.3386 52.1849 59.9007 52.8723 61.3088 52.8723C62.8158 52.8723 63.5878 52.0602 63.8905 50.61H62.5441C62.3526 51.508 62.05 51.9058 61.5806 51.9058C60.9383 51.9058 60.9383 51.3394 61.2286 49.9782C61.5003 48.7034 61.7473 48.0858 62.4391 48.0858C62.9764 48.0858 62.9579 48.6608 62.8467 49.192H64.1993ZM57.0164 52.7303H58.4369L59.6104 47.2039H58.1961L57.0164 52.7303ZM60.0118 45.3146H58.5975L58.3381 46.5257H59.7524L60.0118 45.3146ZM57.6587 47.0803C57.5723 47.0698 57.4858 47.0612 57.4055 47.0612C56.8188 47.0612 56.3494 47.4095 55.9418 47.9394H55.9171L56.0776 47.2039H54.7251L53.5516 52.7303H54.9659L55.6762 49.41C55.8306 48.6719 56.4359 48.4138 56.9299 48.4138C57.072 48.4138 57.2264 48.4267 57.3685 48.4354L57.6587 47.0803ZM52.1743 49.3383H50.7291L50.7723 49.1228C50.8835 48.6108 51.1676 48.0284 51.7358 48.0284C52.3225 48.0284 52.3225 48.4978 52.1743 49.3383ZM51.9952 47.0612C50.0806 47.0612 49.5062 48.4354 49.185 49.9109C48.8948 51.2919 48.6415 52.8723 50.6982 52.8723C52.0261 52.8723 52.7981 52.1534 53.1254 50.8663H51.8531C51.6246 51.5519 51.3529 51.9058 50.8773 51.9058C50.3523 51.9058 50.3153 51.2684 50.4573 50.623L50.55 50.1801H53.354L53.4219 49.8639C53.7801 48.1655 53.6504 47.0612 51.9952 47.0612ZM47.6781 47.0612C47.011 47.0612 46.4305 47.3589 46.097 47.9394H46.0723C46.0414 47.378 45.6338 47.0612 44.9914 47.0612C44.3924 47.0612 43.9044 47.2669 43.4412 47.769H43.4227L43.5462 47.2039H42.1875L41.014 52.7303H42.4283L43.2004 49.0925C43.3362 48.4539 43.6883 48.1439 44.1453 48.1439C44.5468 48.1439 44.6394 48.4076 44.5468 48.8696L43.7253 52.7303H45.1458L45.9117 49.0925C46.0476 48.4539 46.3996 48.1439 46.8505 48.1439C47.2519 48.1439 47.3507 48.4076 47.2581 48.8696L46.4305 52.7303H47.851L48.7033 48.7121C48.9257 47.6467 48.6168 47.0612 47.6781 47.0612ZM39.4206 49.964C39.1303 51.3394 38.8276 51.9058 38.2533 51.9058C37.5554 51.9058 37.6665 51.0924 37.9012 49.964C38.1421 48.835 38.3768 48.0284 39.0747 48.0284C39.6491 48.0284 39.7108 48.5923 39.4206 49.964ZM39.2785 47.0612C37.6603 47.0612 36.8883 48.0741 36.4869 49.964C36.0792 51.8891 36.3325 52.902 38.0433 52.8723C39.6676 52.8723 40.4396 51.8564 40.8411 49.964C41.2487 48.0463 40.9955 47.0297 39.2785 47.0612ZM36.771 47.0803C36.6907 47.0698 36.6042 47.0612 36.5178 47.0612C35.931 47.0612 35.4555 47.4095 35.0602 47.9394H35.0355L35.1961 47.2039H33.8373L32.6638 52.7303H34.0782L34.7884 49.41C34.9428 48.6719 35.5543 48.4138 36.0422 48.4138C36.1904 48.4138 36.3386 48.4267 36.4807 48.4354L36.771 47.0803ZM31.6201 47.7048C31.4657 48.4521 30.9901 48.8041 30.4034 48.8041H29.7487L30.2181 46.5764H30.8357C31.5768 46.5764 31.7745 46.9877 31.6201 47.7048ZM31.6509 45.3955H29.0631L27.5006 52.7303H28.9828L29.6066 49.8009H30.3972C31.793 49.8009 32.8738 49.1123 33.195 47.5954C33.4297 46.4948 33.1518 45.3955 31.6509 45.3955ZM23.2823 49.964C22.992 51.3394 22.6832 51.9058 22.1088 51.9058C21.4109 51.9058 21.5221 51.0924 21.7629 49.964C21.9976 48.835 22.2385 48.0284 22.9364 48.0284C23.5108 48.0284 23.5725 48.5923 23.2823 49.964ZM23.1402 47.0612C21.5159 47.0612 20.7439 48.0741 20.3486 49.964C19.9348 51.8891 20.1942 52.902 21.905 52.8723C23.5293 52.8723 24.3013 51.8564 24.6966 49.964C25.1104 48.0463 24.851 47.0297 23.1402 47.0612ZM18.2981 49.964C18.0449 51.1696 17.7917 51.7829 17.174 51.7829C16.5503 51.7829 16.5564 51.1696 16.8158 49.964C17.069 48.764 17.3223 48.1439 17.9522 48.1439C18.5637 48.1439 18.5575 48.764 18.2981 49.964ZM18.6378 47.0612C18.0881 47.0612 17.6496 47.2724 17.2358 47.7881H17.2111L17.3346 47.2039H15.982L14.4257 54.5343H15.84L16.3341 52.2109H16.3588C16.5564 52.6531 16.8714 52.8723 17.4026 52.8723C18.5698 52.8723 19.2801 52.0188 19.7186 49.964C20.1509 47.9123 19.7989 47.0612 18.6378 47.0612ZM13.6228 47.2039L12.8446 50.8663C12.7087 51.4846 12.3813 51.7829 11.8934 51.7829C11.4796 51.7829 11.3376 51.5698 11.4549 51.0115L12.264 47.2039H10.8497L9.97882 51.2999C9.75031 52.3881 10.1641 52.8723 11.0473 52.8723C11.6464 52.8723 12.2146 52.6253 12.6284 52.0806H12.6469L12.5049 52.7303H13.8636L15.0371 47.2039H13.6228ZM10.2629 47.0803C10.1826 47.0698 10.09 47.0612 10.0097 47.0612C9.42297 47.0612 8.9474 47.4095 8.54595 47.9394H8.52742L8.68183 47.2039H7.32925L6.15578 52.7303H7.57012L8.28038 49.41C8.43478 48.6719 9.04005 48.4138 9.53414 48.4138C9.68237 48.4138 9.83059 48.4267 9.97264 48.4354L10.2629 47.0803ZM3.55562 49.8639H4.53145L4.37705 50.61C4.20412 51.4049 3.56179 51.7829 3.20975 51.7829C2.35744 51.7829 2.43156 50.6724 2.8083 48.9079C3.19123 47.0803 3.63591 46.3417 4.35852 46.3417C4.95143 46.3417 5.05025 47.0297 4.93908 47.5713H6.35342C6.67458 46.0854 6.19284 45.2522 4.56851 45.2522C2.6786 45.2522 1.83247 46.5158 1.31367 48.982C0.776349 51.5154 0.844287 52.8723 2.66008 52.8723C3.35181 52.8723 3.90766 52.6253 4.37705 52.0491H4.39558L4.25352 52.7303H5.34053L6.18048 48.7745H3.79031L3.55562 49.8639Z" fill="#006340"/>
<path fill-rule="evenodd" clip-rule="evenodd" d="M183.251 17.5818C175.37 25.3187 168.335 33.8591 162.005 42.9102L162.011 42.9145C173.283 33.1222 185.542 24.4738 198.728 17.462V17.4459C193.571 17.2477 188.408 17.2878 183.251 17.5818Z" fill="#62B447"/>
<path fill-rule="evenodd" clip-rule="evenodd" d="M190.008 46.3813L190.014 46.3751C188.334 40.1267 186.672 33.8715 185.03 27.6057C180.96 30.2337 176.988 32.987 173.097 35.875C178.792 39.2873 184.418 42.8003 190.008 46.3813ZM157.385 48.0155H157.397C164.234 36.7712 172.158 26.2013 181.367 16.7839C180.255 13.9095 177.97 8.16321 177.97 8.16321C174.851 11.6842 172.097 15.4937 169.552 19.4483C164.642 20.5736 159.8 21.9824 155.112 23.8309C155.112 23.8309 161.066 27.8719 163.987 29.957C161.511 35.6774 157.62 47.3176 157.385 48.0155Z" fill="#006340"/>
</svg>