<svg xmlns:xlink="http://www.w3.org/1999/xlink" xmlns="http://www.w3.org/2000/svg" fill="none" focusable="false" viewBox="0 0 32 32" width="32"  height="32" ><path d="M12.4044 9.95942V22.0406L21.2708 16L12.4044 9.95942ZM13.0659 23.1674C12.8769 23.3051 12.6191 23.3741 12.3184 23.3741C12.0091 23.3741 11.7169 23.2622 11.442 23.0384C11.2186 22.8147 11.1072 22.5221 11.1072 22.1607V9.83002C11.1072 9.52025 11.2186 9.22809 11.442 8.95273C11.6568 8.75482 11.9149 8.64284 12.2156 8.61703C12.5077 8.59121 12.774 8.65983 13.0231 8.82332L22.0099 14.95C22.3708 15.1996 22.5511 15.5437 22.5511 15.9912C22.5511 16.4042 22.3708 16.757 22.0099 17.0323L13.0659 23.1674ZM18.7709 30H2.66996C2.47236 30 2.31766 29.9396 2.18878 29.8105C2.05991 29.6814 2 29.544 2 29.3719V18.7877C2 18.5898 2.05991 18.4349 2.18878 18.3058C2.31766 18.1853 2.47236 18.1167 2.66996 18.1167C2.8332 18.1167 2.97948 18.1767 3.10835 18.3058C3.22864 18.4349 3.28875 18.5898 3.28875 18.7877V28.7093H18.6421L28.7113 25.0867V3.29072H4.66349C4.2425 3.29072 3.90729 3.41974 3.66673 3.66928C3.41757 3.91882 3.28875 4.28002 3.28875 4.75328V13.2118C3.28875 13.4098 3.22864 13.5647 3.10835 13.6938C2.97948 13.8228 2.8418 13.8833 2.66996 13.8833C2.47236 13.8833 2.31766 13.8228 2.18878 13.6938C2.05991 13.5647 2 13.4098 2 13.2118V4.75328C2 3.91861 2.24926 3.25598 2.74757 2.7483C3.24589 2.24922 3.89024 2 4.66349 2H29.3728C29.5361 2 29.6823 2.06 29.8112 2.18907C29.9401 2.31814 30 2.45604 30 2.62813V25.5426C30 25.6802 29.9569 25.8093 29.8796 25.9211C29.7937 26.033 29.6993 26.102 29.5876 26.1278L19.0201 29.9567C18.9943 29.9825 18.9598 30 18.9169 30H18.7709Z" fill="#1B0088"></path></svg>