<svg xmlns:xlink="http://www.w3.org/1999/xlink" xmlns="http://www.w3.org/2000/svg" viewBox="0 0 22 21" width="22" height="21" color="#1B0088" class="sc-koxvcs jTLkZF"><path d="M6.46963 10.4643C5.89201 10.6115 5.4235 10.6819 5.0705 10.6819C3.80615 10.6819 2.7921 10.1571 2.02194 9.10096V9.06897L0.122191 6.00298C0.000248671 5.81736 -0.0318509 5.61255 0.0323294 5.38212C0.154272 5.1517 0.321153 5.01088 0.52653 4.94688L1.95774 4.4476C2.10535 4.38359 2.25297 4.37078 2.40701 4.40279C2.56104 4.43479 2.70225 4.4988 2.82419 4.60121L4.2554 5.59336L5.37213 6.39982L8.47848 5.31813L4.46721 1.59925C4.28109 1.39443 4.21692 1.19601 4.2811 1.01039C4.32603 0.805567 4.46077 0.671147 4.6854 0.60714L4.71752 0.575144L6.77126 0.0502766C7.06649 -0.0329333 7.32322 -0.0137076 7.54785 0.114308L11.8351 2.38016C11.9378 2.44417 12.0148 2.53378 12.0533 2.6618C12.0982 2.78341 12.0854 2.91144 12.0212 3.03305C11.9571 3.13547 11.8672 3.20585 11.7388 3.25066C11.6169 3.29546 11.4885 3.28267 11.3666 3.21866L7.11143 0.984802H7.05365L5.62245 1.35606L9.72357 5.17089C9.84552 5.2925 9.89044 5.44615 9.84552 5.63817C9.80059 5.80459 9.69792 5.91978 9.53747 5.97739L5.46199 7.40475C5.27587 7.44955 5.12826 7.42396 5.02557 7.34075L3.69061 6.38064L2.25941 5.38853C2.24015 5.38853 2.22732 5.37574 2.22732 5.35653L1.11059 5.75975L2.81777 8.55051C3.20927 9.08817 3.68421 9.44018 4.22974 9.6002C4.77528 9.76662 5.42351 9.74744 6.168 9.53621L19.7164 4.85726C20.0053 4.75484 20.262 4.62684 20.493 4.46682C20.7176 4.3132 20.8781 4.14039 20.9615 3.95477C21.045 3.74994 21.045 3.51951 20.9615 3.26988C20.9423 3.14826 20.8652 3.01385 20.7305 2.86663C20.5957 2.71941 20.3518 2.63618 19.9988 2.60417C19.6459 2.57217 19.1196 2.6682 18.4136 2.89862L14.8066 4.14037C14.6847 4.17878 14.5563 4.17238 14.4344 4.10838C14.3124 4.04437 14.229 3.95476 14.1841 3.82674C14.1392 3.70513 14.152 3.5771 14.2162 3.45549C14.2804 3.33387 14.3702 3.25065 14.4986 3.20585L18.1055 1.9641C19.1003 1.63126 19.9154 1.54808 20.5444 1.7145C21.1733 1.88092 21.6162 2.28414 21.8665 2.92421C22.0526 3.44267 22.0462 3.91636 21.8344 4.35161C21.5456 4.95328 20.9423 5.42692 20.0309 5.77897L6.48248 10.4579H6.46963V10.4643ZM12.7786 21H0.500872C0.359675 21 0.237734 20.9552 0.141464 20.8592C0.0451937 20.7631 0.000247109 20.6607 0.000247109 20.5327C0.000247109 20.3855 0.0516117 20.2703 0.141464 20.1743C0.237734 20.0847 0.353257 20.0335 0.500872 20.0335H12.7786C12.9198 20.0335 13.0417 20.0783 13.1315 20.1743C13.2278 20.2703 13.2727 20.3855 13.2727 20.5327C13.2727 20.6543 13.2278 20.7631 13.1315 20.8592C13.0417 20.9552 12.9262 21 12.7786 21Z" class="sc-hMxIkD fHsVfS" fill="#1B0088"></path></svg>