<svg xmlns:xlink="http://www.w3.org/1999/xlink" xmlns="http://www.w3.org/2000/svg" viewBox="0 0 22 21" width="22" height="22" color="#1B0088" class="sc-koxvcs jTLkZF"><path d="M7.05655 4.98969C6.52872 4.98969 6.08258 5.18409 5.70557 5.5729C5.32855 5.96171 5.14004 6.42828 5.14004 6.96613C5.14004 7.51046 5.32855 7.9835 5.70557 8.37879C6.08258 8.77408 6.53501 8.97496 7.06284 8.97496C7.59066 8.97496 8.04937 8.77408 8.43267 8.37879C8.81598 7.9835 9.01077 7.51046 9.01077 6.96613C9.01077 6.4218 8.81598 5.95523 8.43267 5.5729C8.04309 5.18409 7.58438 4.98969 7.05655 4.98969ZM7.05655 9.82386C6.30251 9.82386 5.66158 9.54521 5.12118 8.9944C4.58079 8.43711 4.31688 7.76318 4.31688 6.97261C4.31688 6.17555 4.58707 5.5081 5.12118 4.96377C5.66158 4.41944 6.30251 4.14728 7.05655 4.14728C7.82944 4.14728 8.48294 4.42592 9.01706 4.97673C9.55745 5.53402 9.82136 6.19499 9.82136 6.97261C9.82136 7.75022 9.55117 8.41767 9.01706 8.98144C8.48294 9.53873 7.82944 9.82386 7.05655 9.82386ZM13.5413 22H0.483842C0.345601 22 0.226212 21.9546 0.138241 21.8574C0.0439856 21.7602 0 21.6436 0 21.4945C0 21.3714 0.0439856 21.2613 0.138241 21.1641C0.226212 21.0669 0.345601 21.0215 0.483842 21.0215H13.5413C13.6607 21.0215 13.7675 21.0669 13.8618 21.1641C13.956 21.2548 14 21.3649 14 21.4945C14 21.6436 13.956 21.7602 13.8618 21.8574C13.7675 21.9482 13.6607 22 13.5413 22ZM7.08797 18.8571C6.69838 18.8571 6.32765 18.6692 5.9632 18.2934C1.98564 13.9452 0 10.2062 0 7.08925C0 5.77378 0.339318 4.56848 1.01795 3.47982C1.69659 2.39764 2.5763 1.54227 3.65081 0.926657C4.72531 0.304565 5.86266 0 7.05655 0C8.67774 0 10.123 0.492489 11.3923 1.49043C12.6616 2.48188 13.4973 3.76495 13.8995 5.33314C13.9434 5.45626 13.9246 5.58586 13.8555 5.70898C13.7864 5.83211 13.6858 5.90987 13.5664 5.92931C13.4408 5.94875 13.3339 5.92931 13.2334 5.86451C13.1329 5.79971 13.0637 5.70898 13.0197 5.58586C12.6741 4.22504 11.9515 3.11694 10.8456 2.26156C9.73968 1.39971 8.47666 0.972018 7.05655 0.972018C5.91921 0.972018 4.88241 1.26362 3.93357 1.85331C2.99102 2.43652 2.25583 3.1947 1.72801 4.12783C1.20646 5.05449 0.942549 6.04595 0.942549 7.08925C0.942549 9.9729 2.84022 13.4786 6.62926 17.6C6.81149 17.7879 6.9623 17.8851 7.08797 17.8851C7.18851 17.8851 7.32047 17.8009 7.48384 17.6324C9.16786 15.7272 10.4623 14.0295 11.3609 12.5325C12.2594 11.0356 12.8375 9.66186 13.0763 8.40471C13.0952 8.28159 13.158 8.17791 13.2585 8.10663C13.3591 8.03535 13.4722 8.00943 13.5916 8.02887C13.711 8.04831 13.8178 8.11311 13.8932 8.21679C13.9749 8.32047 14.0063 8.44359 13.9874 8.59264C13.7235 9.99234 13.1266 11.4698 12.1903 13.0186C11.254 14.5673 9.9219 16.3105 8.17505 18.261C7.84829 18.6368 7.49641 18.8377 7.11311 18.8571H7.08797Z" class="sc-hMxIkD fHsVfS" fill="#1B0088"></path></svg>