<svg xmlns:xlink="http://www.w3.org/1999/xlink" xmlns="http://www.w3.org/2000/svg" fill="none" focusable="false" viewBox="0 0 32 32" width="32"  height="32" ><path d="M22.9254 3.28794C22.0322 3.28794 21.2232 3.55557 20.5154 4.08245C19.8076 4.60934 19.3273 5.30347 19.0914 6.16488C19.0071 6.49105 18.9651 6.84231 18.9651 7.21865C18.9651 8.34769 19.3864 9.30108 20.229 10.0538L22.5126 6.85067C22.6221 6.71686 22.7569 6.62487 22.917 6.59141C23.0771 6.5496 23.2288 6.58305 23.3636 6.69177C23.4984 6.80049 23.5828 6.93431 23.6249 7.09321C23.667 7.26047 23.6332 7.40265 23.5237 7.53646L21.2402 10.7396C21.7879 10.9821 22.344 11.0992 22.917 11.0992C24.004 11.0992 24.9309 10.7228 25.6893 9.96178C26.4477 9.20909 26.8352 8.28913 26.8352 7.21028C26.8352 6.13143 26.4561 5.20311 25.6893 4.43369C24.9394 3.67264 24.0124 3.28794 22.9254 3.28794ZM22.9254 12.362C22.0828 12.362 21.2738 12.1697 20.5154 11.7933L16.8416 17.0203C16.7068 17.2127 16.5382 17.3047 16.3528 17.3047C16.3023 17.3047 16.2349 17.2879 16.1675 17.2628C16.1001 17.2377 16.0411 17.2043 15.9821 17.1792C15.8473 17.0705 15.7545 16.9283 15.7124 16.7527C15.6703 16.5771 15.7041 16.4182 15.8136 16.2844L19.4874 11.0992C18.9144 10.589 18.4764 10.0036 18.1646 9.33454C17.8528 8.67385 17.6927 7.96297 17.6927 7.21028V6.88413C17.6927 6.77541 17.7096 6.66668 17.7349 6.55795H5.28909C5.23853 6.55795 5.17939 6.58305 5.12883 6.64159C5.10355 6.66668 5.10355 6.70848 5.12883 6.75866L5.171 6.80049V6.8423L13.7827 18.9104C13.867 18.994 13.9093 19.1111 13.9093 19.27V28.7455L19.378 28.7873C19.5381 28.7873 19.6813 28.8459 19.8077 28.9462C19.9257 29.055 19.9931 29.2055 19.9931 29.3895C19.9931 29.5484 19.9341 29.6906 19.8077 29.816C19.6813 29.9331 19.5465 30 19.378 30H7.83387C7.66534 30 7.52209 29.9415 7.40412 29.816C7.28615 29.6989 7.21876 29.5567 7.21876 29.3895C7.21876 29.1971 7.27772 29.0466 7.40412 28.9211C7.52209 28.7957 7.67377 28.7371 7.83387 28.7371H12.6453V19.4206L4.20205 7.55318C4.00825 7.33573 3.90701 7.10156 3.87331 6.8423C3.84803 6.58304 3.89029 6.34887 3.99983 6.13142C4.10937 5.8638 4.27778 5.65472 4.51372 5.50418C4.74123 5.35365 5.01104 5.27839 5.31439 5.27839H18.0887C18.4679 4.30825 19.1083 3.51376 20.0099 2.91161C20.9116 2.3011 21.889 2 22.9507 2C23.9282 2 24.8129 2.24255 25.605 2.72762C26.397 3.21269 27.0121 3.84829 27.4587 4.63443C27.9053 5.42057 28.1329 6.26524 28.1329 7.18519C28.1329 8.15532 27.8886 9.04184 27.3999 9.83634C26.9112 10.6308 26.2707 11.2497 25.4871 11.6762C24.6613 12.1446 23.8186 12.362 22.9254 12.362Z" fill="#1B0088"></path></svg>