<svg xmlns:xlink="http://www.w3.org/1999/xlink" xmlns="http://www.w3.org/2000/svg" fill="none" focusable="false" viewBox="0 0 32 32" width="32"  height="32" ><path d="M17.468 6.48828C17.3217 6.48828 17.1905 6.43532 17.0749 6.32217C16.9594 6.20902 16.9057 6.0732 16.9057 5.89971V4.61761C16.9057 4.44412 16.9594 4.3083 17.0749 4.19515C17.1828 4.08201 17.314 4.02904 17.468 4.02904C17.6452 4.02904 17.7839 4.08201 17.8995 4.19515C18.015 4.30076 18.0688 4.44412 18.0688 4.61761V5.89971C18.0688 6.0732 18.015 6.20902 17.8995 6.32217C17.7839 6.43532 17.6452 6.48828 17.468 6.48828ZM14.5558 6.48828C14.3863 6.48828 14.2401 6.43532 14.1323 6.32217C14.0167 6.20902 13.9626 6.0732 13.9626 5.89971V4.61761C13.9626 4.44412 14.0167 4.3083 14.1323 4.19515C14.2478 4.08201 14.3863 4.02904 14.5558 4.02904C14.7099 4.02904 14.841 4.08201 14.9489 4.19515C15.0645 4.30076 15.1182 4.44412 15.1182 4.61761V5.89971C15.1182 6.0732 15.0568 6.20902 14.9489 6.32217C14.841 6.43532 14.7099 6.48828 14.5558 6.48828ZM13.8855 29.9775C13.7083 29.9775 13.5698 29.9246 13.462 29.8114C13.3464 29.6983 13.2927 29.5625 13.2927 29.389V23.068H12.06C11.9368 23.068 11.8135 23.0228 11.7057 22.9398C11.5901 22.8568 11.5285 22.7511 11.4977 22.6304L9.93359 16.5657V9.58838C9.93359 9.05282 10.08 8.61552 10.365 8.27608C10.6501 7.93664 11.043 7.7178 11.536 7.61974V2.58083C11.536 2.43751 11.5978 2.3019 11.7211 2.18121C11.8444 2.06052 11.983 2 12.1371 2H19.8559C20.0331 2 20.1718 2.05296 20.2873 2.16611C20.4029 2.27926 20.457 2.41508 20.457 2.58857V7.58954H21.5046C21.6586 7.58954 21.7898 7.65005 21.8977 7.75565C22.0132 7.8688 22.0669 8.00425 22.0669 8.17774V16.5808C22.0438 16.7543 21.8589 17.4861 21.5046 18.776C21.1579 20.0659 20.9192 20.903 20.7959 21.2953V21.3708C20.5956 21.9063 20.426 22.2759 20.2719 22.4871C20.1255 22.6908 19.9329 22.8491 19.6941 22.9471C19.4553 23.0452 19.1857 23.0904 18.8929 23.0904H18.6311V29.4118C18.6311 29.5853 18.5695 29.7207 18.4539 29.8339C18.3461 29.947 18.2153 30 18.0612 30C17.884 30 17.7453 29.947 17.6298 29.8339C17.5219 29.7207 17.4601 29.5853 17.4601 29.4118V23.0904H16.8286C16.6591 23.0904 16.5127 23.0378 16.3971 22.9247C16.2893 22.8115 16.2275 22.6757 16.2275 22.5022C16.2275 22.3589 16.2893 22.2305 16.3971 22.1173C16.5127 22.0117 16.6514 21.9516 16.8286 21.9516H18.8779C19.1013 21.9516 19.2473 21.9064 19.3244 21.8083C19.3937 21.7103 19.5094 21.4385 19.6558 21.001L19.6941 20.9258C19.8174 20.5864 20.0333 19.8321 20.3261 18.6629C20.6188 17.4937 20.8114 16.7394 20.8884 16.4V8.72837H19.8408C19.6945 8.72837 19.5633 8.67577 19.4477 8.56263C19.3399 8.44948 19.2781 8.32106 19.2781 8.17774V3.1392H12.6762V7.59691H16.6668C16.844 7.59691 16.9827 7.65741 17.0983 7.76302C17.2138 7.87616 17.2675 8.01198 17.2675 8.18547C17.2675 8.32879 17.2138 8.45685 17.0983 8.56999C16.9904 8.68314 16.844 8.7361 16.6668 8.7361H11.9291C11.359 8.7361 11.0737 9.0304 11.0737 9.61122V16.4074L12.4915 21.959H13.9088C14.0629 21.959 14.1937 22.0119 14.3015 22.1251C14.4094 22.2382 14.4712 22.3663 14.4712 22.5096V29.4118C14.4712 29.5853 14.4094 29.7207 14.3015 29.8339C14.2014 29.9244 14.0627 29.9775 13.8855 29.9775Z" fill="#1B0088" stroke="#1B0088" stroke-width="0.0666667px"></path></svg>