<svg xmlns:xlink="http://www.w3.org/1999/xlink" xmlns="http://www.w3.org/2000/svg" fill="none" focusable="false" viewBox="0 0 32 32" width="32"  height="32" ><path d="M8.92867 6.56295L8.91514 6.53249C6.64047 7.54243 4.66776 8.95967 2.99081 10.7759C2.87276 10.8948 2.73435 10.9532 2.58124 10.9532C2.42541 10.9532 2.30307 10.9085 2.20985 10.8145C2.09168 10.6953 2.03333 10.5552 2.03333 10.4004C2.03333 10.2431 2.07771 10.12 2.17793 10.0261L2.178 10.0262L2.17973 10.0243C3.95132 8.08953 6.04728 6.58382 8.45336 5.50714C10.8593 4.43833 13.3817 3.90003 16.0042 3.90003C18.6266 3.90003 21.1405 4.43833 23.5543 5.50718C25.968 6.57601 28.057 8.08167 29.8285 10.0243L29.8285 10.0243L29.8295 10.0253C29.9239 10.1204 29.9667 10.2291 29.9667 10.3613C29.9667 10.4953 29.9304 10.6052 29.8577 10.7006L29.857 10.7015L26.1758 15.891L26.1755 15.8915C26.0814 16.0303 25.9447 16.1034 25.7535 16.1034C25.5847 16.1034 25.4462 16.0448 25.3286 15.9267C24.171 14.5403 22.7803 13.4592 21.1489 12.6836L21.1488 12.6836C19.517 11.9156 17.7988 11.5237 15.9958 11.5237C14.2629 11.5237 12.616 11.8763 11.0462 12.5816L11.0461 12.5817C9.47662 13.2947 8.11665 14.2743 6.96651 15.5439L6.94853 15.5637L6.96404 15.5855L9.92396 19.7512L9.94876 19.7861L9.97651 19.7535C10.7252 18.874 11.6205 18.1892 12.6701 17.6989C13.7197 17.2086 14.8228 16.9594 15.9958 16.9594C17.3156 16.9594 18.5502 17.2708 19.6922 17.8856L19.6923 17.8857C20.842 18.5004 21.7762 19.3482 22.4938 20.4297C22.5661 20.5466 22.5885 20.6867 22.5661 20.8447C22.5442 20.9991 22.4721 21.1238 22.356 21.2199C22.3121 21.2417 22.2555 21.2627 22.1998 21.2697L22.1998 21.2694L22.1959 21.2704C22.1356 21.2856 22.0842 21.2929 22.0413 21.2929C21.9332 21.2929 21.842 21.2722 21.7666 21.2314C21.6913 21.1907 21.6298 21.1291 21.5822 21.0441L21.5823 21.0441L21.5808 21.0418C20.9501 20.1074 20.14 19.369 19.151 18.835L19.1509 18.8349C18.1542 18.301 17.1103 18.0338 16.0042 18.0338C14.8981 18.0338 13.8464 18.3009 12.8574 18.835C11.8687 19.3688 11.0508 20.0991 10.4277 21.0415C10.3091 21.2057 10.1561 21.2929 9.96702 21.2929C9.85889 21.2929 9.76776 21.2722 9.6923 21.2314C9.61706 21.1907 9.55556 21.1291 9.50795 21.0441L9.50812 21.0441L9.50606 21.0412L5.8249 15.8519L5.82555 15.8514L5.82012 15.8465C5.7528 15.7854 5.72206 15.6873 5.72206 15.5506C5.72206 15.4179 5.75861 15.299 5.82556 15.1707C7.0697 13.6908 8.58349 12.5303 10.3527 11.7044C12.123 10.8781 14.0096 10.4572 16.0042 10.4572C17.8518 10.4572 19.6143 10.8235 21.284 11.5563C22.9538 12.2891 24.4148 13.3181 25.6671 14.6513L25.695 14.6809L25.7186 14.6477L28.6785 10.4821L28.6945 10.4596L28.6754 10.4397C27.0216 8.71709 25.0959 7.38603 22.8831 6.43863C20.6781 5.49122 18.3802 5.01349 16.0042 5.01349C13.5427 5.01349 11.1822 5.52246 8.9151 6.53251L8.92867 6.56295ZM8.92867 6.56295C6.65797 7.57113 4.68885 8.98584 3.01489 10.799L8.92867 6.56295ZM14.0518 27.2971L14.0516 27.2969C13.5158 26.7643 13.2554 26.1086 13.2554 25.3354C13.2554 24.586 13.5155 23.9459 14.0516 23.413L14.0519 23.4127C14.5801 22.8723 15.2294 22.6099 15.9958 22.6099C16.7385 22.6099 17.3734 22.8798 17.9021 23.4129C18.4307 23.946 18.6984 24.5863 18.6984 25.3354C18.6984 26.1084 18.4305 26.7642 17.9021 27.2971L17.9019 27.2972C17.3735 27.8378 16.7387 28.1 15.9958 28.1C15.2296 28.1 14.5802 27.8299 14.0518 27.2971ZM15.9958 23.7155C15.5377 23.7155 15.1495 23.8753 14.8332 24.1944C14.5174 24.5129 14.3512 24.8962 14.3512 25.3354C14.3512 25.7969 14.5088 26.1963 14.8332 26.5156C15.1499 26.8428 15.5382 26.9944 15.9958 26.9944C16.4312 26.9944 16.8122 26.8343 17.1282 26.5155C17.4445 26.1966 17.6102 25.7974 17.6102 25.3354C17.6102 24.8964 17.4519 24.5208 17.1282 24.1944C16.8122 23.8756 16.4312 23.7155 15.9958 23.7155Z" fill="#1B0088" stroke="#1B0088" stroke-width="0.0666667px"></path></svg>